#N canvas 190 148 1166 909 10;
#X obj 599 -8 cnv 15 277 864 empty empty empty 46 13 0 14 -163105 -66577
0;
#N canvas 399 117 877 871 output 0;
#X obj 353 490 t b;
#X obj 353 437 f;
#X obj 353 515 f;
#X msg 467 514 0;
#X obj 353 467 moses 1;
#X obj 467 486 t b f;
#X obj 433 447 moses 1;
#X obj 29 97 dbtorms;
#X obj 85 170 inlet~;
#X msg 287 315 \; pd dsp 1;
#X obj 29 170 line~;
#X obj 64 242 *~;
#X obj 64 272 dac~;
#X obj 29 127 pack 0 50;
#X text 209 141 audio in;
#X text 138 464 test if less than 1 -->;
#X text 104 491 if true convert to bang -->;
#X text 183 99 <-- convert from dB to linear units;
#X floatatom 323 219 3 0 100 0 dB - -, f 3;
#X obj 350 240 bng 15 250 50 0 empty empty mute -38 7 0 12 -262144
-1 -1;
#X text 191 125 <-- make a ramp to avoid clicks or zipper noise;
#X obj 148 170 inlet~;
#X obj 154 241 *~;
#X text 373 378 MUTE logic:;
#X obj 323 174 r \$0-master-lvl;
#X obj 353 541 s \$0-master-lvl;
#X obj 323 279 s \$0-master-out;
#X obj 29 71 r \$0-master-out;
#X obj 435 408 r \$0-master-out;
#X text 60 10 Level control abstraction \, used in many of the Pd example
patches. The "level" and "mute" controls show up on the parent \, calling
patch.;
#X text 66 517 previous nonzero master-lvl -->;
#X text 138 421 recall previous;
#X text 138 439 value of master-lvl -->;
#X text 39 319 automatically start DSP -->;
#X obj 85 192 hip~ 3;
#X obj 147 192 hip~ 3;
#X obj 478 176 loadbang;
#X msg 480 222 85;
#X obj 564 193 r master_volume;
#X connect 0 0 2 0;
#X connect 1 0 4 0;
#X connect 2 0 25 0;
#X connect 3 0 25 0;
#X connect 4 0 0 0;
#X connect 4 1 5 0;
#X connect 5 0 3 0;
#X connect 6 1 2 1;
#X connect 7 0 13 0;
#X connect 8 0 34 0;
#X connect 10 0 22 0;
#X connect 10 0 11 0;
#X connect 11 0 12 0;
#X connect 13 0 10 0;
#X connect 18 0 9 0;
#X connect 18 0 26 0;
#X connect 19 0 1 0;
#X connect 21 0 35 0;
#X connect 22 0 12 1;
#X connect 24 0 18 0;
#X connect 27 0 7 0;
#X connect 28 0 1 1;
#X connect 28 0 6 0;
#X connect 34 0 11 1;
#X connect 35 0 22 1;
#X connect 36 0 37 0;
#X connect 37 0 18 0;
#X connect 38 0 18 0;
#X coords 0 -1 1 1 65 55 1 300 200;
#X restore 432 278 pd output;
#X text 774 114 Hz;
#X text 776 755 noise resonance;
#X floatatom 741 755 5 0 200 0 - noise_resonance_knob noise_resonance
, f 5;
#X floatatom 716 149 5 0 0 0 - Beat_Frequency_knob -, f 5;
#X floatatom 786 149 5 -100 100 0 - - -, f 5;
#X floatatom 732 115 5 0 0 0 - Main_Frequency_knob Main_Frequency,
f 5;
#N canvas 553 295 1 1 volume 0;
#X obj 121 161 / 127;
#X obj 121 188 pack 0 50;
#X obj 137 231 line;
#X obj 106 113 hsl 110 15 0 127 0 0 empty volume_phasor empty -2 -8
0 10 -262144 -1 -1 5150 1;
#X obj 189 292 s phasor_volume;
#X connect 0 0 1 0;
#X connect 1 0 2 0;
#X connect 2 0 4 0;
#X connect 3 0 0 0;
#X coords 0 -1 1 1 125 40 1 100 100;
#X restore 610 533 pd volume phasor;
#N canvas 38 123 616 437 volume 0;
#X obj 121 161 / 127;
#X obj 121 188 pack 0 50;
#X obj 137 231 line;
#X obj 106 113 hsl 128 15 0 127 0 0 empty volume_noise empty -2 -8
0 10 -262144 -1 -1 1400 1;
#X obj 121 298 s noise_volume;
#X connect 0 0 1 0;
#X connect 1 0 2 0;
#X connect 2 0 4 0;
#X connect 3 0 0 0;
#X coords 0 -1 1 1 140 40 1 100 100;
#X restore 606 703 pd volume noise;
#X floatatom 609 756 5 0 140 0 - noise_cutoff_knob noise_cutoff, f
5;
#X text 753 149 Hz;
#X text 613 258 Add some effects with :;
#X obj 620 -1 cnv 15 197 36 empty empty BinauralSynth 24 15 0 18 -129822
-66577 0;
#X obj 802 204 +;
#X floatatom 636 786 5 0 0 0 - noise_panning_knob noise_panning, f
5;
#X text 678 787 noise panning effect;
#X floatatom 606 819 5 0 200 0 - master_volume_knob master_volume,
f 5;
#X text 646 820 master volume;
#N canvas 158 367 1 1 volume 0;
#X obj 121 161 / 127;
#X obj 121 188 pack 0 50;
#X obj 137 231 line;
#X obj 106 113 hsl 128 15 0 127 0 0 empty empty empty -2 -8 0 10 -262144
-1 -1 0 1;
#X obj 121 34 loadbang;
#X msg 121 59 100;
#X obj 121 298 s sine_volume;
#X connect 0 0 1 0;
#X connect 1 0 2 0;
#X connect 2 0 6 0;
#X connect 3 0 0 0;
#X connect 4 0 5 0;
#X connect 5 0 3 0;
#X coords 0 -1 1 1 140 40 1 100 100;
#X restore 642 197 pd volume sine;
#N canvas 661 263 1 1 volume 0;
#X obj 121 161 / 127;
#X obj 121 188 pack 0 50;
#X obj 137 231 line;
#X obj 106 113 hsl 128 15 0 127 0 0 empty empty empty -2 -8 0 10 -262144
-1 -1 7200 1;
#X obj 121 34 loadbang;
#X msg 121 59 50;
#X obj 121 298 s FM_volume;
#X connect 0 0 1 0;
#X connect 1 0 2 0;
#X connect 2 0 6 0;
#X connect 3 0 0 0;
#X connect 4 0 5 0;
#X connect 5 0 3 0;
#X coords 0 -1 1 1 140 40 1 100 100;
#X restore 643 288 pd volume FM;
#X floatatom 703 341 5 0 0 0 - - FM_Freq, f 5;
#X floatatom 833 342 5 0 0 0 - - FM_mod_depth, f 5;
#X obj 409 236 r~ OUT_left;
#X obj 494 236 r~ OUT_right;
#X text 743 341 FM mod depth:;
#X text 614 115 Carrier Frequency:;
#X text 614 150 Beat Frequency:;
#X text 618 340 FM mod freq:;
#X text 707 375 FM Wave;
#N canvas 0 0 450 300 (subpatch) 0;
#X array pitchmod14 131 float 1;
#A 0 -0.423689 -0.345228 -0.313844 -0.298151 -0.282459 -0.266767 -0.258921
-0.251075 -0.235382 -0.21969 -0.211844 -0.203998 -0.188306 -0.28247
-0.266777 -0.261546 -0.256315 -0.251085 -0.251085 -0.251085 -0.245854
-0.240623 -0.235392 -0.235392 -0.235392 -0.235392 -0.235392 -0.235392
-0.235392 -0.235392 -0.235392 -0.235392 -0.235392 -0.235392 -0.235392
-0.235392 -0.235392 -0.235392 -0.235392 -0.235392 -0.235392 -0.235392
-0.251085 -0.256315 -0.261546 -0.266777 -0.274623 -0.28247 -0.290316
-0.298162 -0.298162 -0.298162 -0.313855 -0.313855 -0.313855 -0.329547
-0.329547 -0.329547 -0.329547 -0.337393 -0.345239 -0.345239 -0.345239
-0.345239 -0.360932 0.411925 0.400156 0.388386 0.376617 0.376617 0.360925
0.345232 0.337386 0.32954 0.313847 0.298155 0.290309 0.282462 0.282462
0.26677 0.258924 0.251077 0.251077 0.235385 0.227539 0.219692 0.219692
0.219692 0.204 0.204 0.204 0.188307 0.188307 0.188307 0.847391 0.847391
0.847391 0.847391 0.847391 0.847391 0.847391 0.847391 0.847391 0.847391
0.847391 0.847391 0.831699 0.823853 0.816006 0.800314 0.784621 0.753236
0.721852 0.109847 0.120308 0.13077 0.141231 0.149077 0.156923 0.156923
0.160847 0.16477 0.168693 0.172616 0.177846 0.183077 0.188308 0.193539
0.198769 0.204 0.235385;
#X coords 0 1.02 130 -1.02 258 130 1;
#X restore 609 394 graph;
#X obj 821 83 image garvalf.png 0;
#X text 622 41 by Garvalf;
#X text 642 756 noise cut off;
#X obj 831 205 / 100;
#X obj 828 591 nbx 2 15 1 99 0 0 square_pwm square_pwm_knob empty 0
-8 0 12 -179695 -1 -1 89.7638 256;
#N canvas 661 204 616 414 volume 0;
#X obj 121 161 / 127;
#X obj 121 188 pack 0 50;
#X obj 137 231 line;
#X obj 106 113 hsl 110 15 0 127 0 0 empty volume_square empty -2 -8
0 10 -262144 -1 -1 5150 1;
#X obj 121 298 s square_volume;
#X connect 0 0 1 0;
#X connect 1 0 2 0;
#X connect 2 0 4 0;
#X connect 3 0 0 0;
#X coords 0 -1 1 1 125 40 1 100 100;
#X restore 747 533 pd volume square;
#X text 777 590 sq pwm:;
#N canvas 123 160 1015 920 pdpulp 0;
#X obj 100 -10 loadbang;
#X obj 50 100 s pdpulp_p1;
#X obj 87 218 r pdpulp_p1;
#X obj 184 101 s pdpulp_p2;
#X obj 195 209 r pdpulp_p2;
#X obj 90 248 * 200;
#X obj 206 245 * 200;
#X obj 342 240 * 200;
#X obj 331 204 r pdpulp_p3;
#X obj 454 242 * 200;
#X obj 293 99 s pdpulp_p3;
#X obj 415 100 s pdpulp_p4;
#X obj 443 206 r pdpulp_p4;
#X text 54 158 For use with the Pd Pulp VST;
#X obj 90 456 s volume_square;
#X obj 201 457 s square_pwm;
#X obj 308 458 s volume_phasor;
#X obj 453 458 s volume_noise;
#X obj 513 146 s pdpulp_p5;
#X obj 642 113 s pdpulp_p6;
#X obj 738 104 s pdpulp_p7;
#X obj 877 86 s pdpulp_p8;
#X msg 513 112 volume_square 0;
#X msg 636 17 square_pwm 0.3;
#X msg 740 45 volume_phasor 0;
#X msg 878 108 volume_noise 0;
#X obj 94 373 r pdpulp_p5;
#X obj 201 374 r pdpulp_p6;
#X obj 337 369 r pdpulp_p7;
#X obj 449 371 r pdpulp_p8;
#X obj 460 407 * 127;
#X obj 348 405 * 127;
#X obj 212 410 * 1;
#X obj 109 412 * 127;
#X msg 22 41 Main_Frequency 0.5;
#X msg 151 61 Beat_Frequency 0.5;
#X msg 287 6 FM_Freq 0.5;
#X msg 418 21 FM_mod_depth 0.5;
#X obj 89 280 s Main_Frequency_knob;
#X obj 229 280 s Beat_Frequency_knob;
#X obj 370 277 s FM_Freq_knob;
#X obj 482 279 s FM_mod_depth_knob;
#X connect 0 0 1 0;
#X connect 0 0 3 0;
#X connect 0 0 20 0;
#X connect 0 0 10 0;
#X connect 0 0 19 0;
#X connect 0 0 18 0;
#X connect 0 0 11 0;
#X connect 0 0 21 0;
#X connect 2 0 5 0;
#X connect 4 0 6 0;
#X connect 5 0 38 0;
#X connect 6 0 39 0;
#X connect 7 0 40 0;
#X connect 8 0 7 0;
#X connect 9 0 41 0;
#X connect 12 0 9 0;
#X connect 22 0 18 0;
#X connect 23 0 19 0;
#X connect 24 0 20 0;
#X connect 25 0 21 0;
#X connect 26 0 33 0;
#X connect 27 0 32 0;
#X connect 28 0 31 0;
#X connect 29 0 30 0;
#X connect 30 0 17 0;
#X connect 31 0 16 0;
#X connect 32 0 15 0;
#X connect 33 0 14 0;
#X connect 34 0 1 0;
#X connect 35 0 3 0;
#X connect 36 0 10 0;
#X connect 37 0 11 0;
#X restore 900 634 pd pdpulp;
#N canvas 0 107 851 569 knobs 1;
#X obj 48 43 ctlin 74;
#X obj 207 43 ctlin 71;
#X text 49 163 Midi CC control for a few parameters (made for Behringer
ULA25S \, adapt it for your own device);
#X obj 66 85 * 2;
#X obj 231 85 * 0.5;
#X obj 55 231 ctlin 7;
#X obj 82 268 * 1;
#X obj 56 299 s master_volume;
#X obj 492 44 ctlin 75;
#X obj 364 44 ctlin 73;
#X obj 503 75 * 10;
#X obj 376 80 * 5;
#X obj 510 331 ctlin 72;
#X obj 631 47 ctlin 91;
#X obj 620 216 ctlin 93;
#X obj 637 357 ctlin 10;
#X obj 600 308 s volume_square;
#X obj 521 362 * 1;
#X obj 642 78 / 1.27;
#X obj 619 285 s volume_phasor;
#X obj 636 426 s volume_noise;
#X obj 631 247 * 1;
#X obj 648 388 * 1;
#X obj 357 116 s FM_Freq_knob;
#X obj 484 115 s FM_mod_depth_knob;
#X obj 49 116 s Main_Frequency_knob;
#X obj 205 116 s Beat_Frequency_knob;
#X obj 630 116 s square_pwm_knob;
#X obj 491 430 s phase_cutoff_knob;
#X connect 0 0 3 0;
#X connect 1 0 4 0;
#X connect 3 0 25 0;
#X connect 4 0 26 0;
#X connect 5 0 6 0;
#X connect 6 0 7 0;
#X connect 8 0 10 0;
#X connect 9 0 11 0;
#X connect 10 0 24 0;
#X connect 11 0 23 0;
#X connect 12 0 17 0;
#X connect 13 0 18 0;
#X connect 14 0 21 0;
#X connect 15 0 22 0;
#X connect 17 0 28 0;
#X connect 18 0 27 0;
#X connect 21 0 19 0;
#X connect 21 0 16 0;
#X connect 22 0 20 0;
#X restore 899 596 pd knobs;
#X obj 449 376 r master_volume;
#X obj 907 238 r FM_Freq_knob;
#X obj 895 295 r FM_mod_depth_knob;
#N canvas 624 251 450 346 midi_input 0;
#X obj 260 131 mtof;
#X obj 66 89 pack 0 0 0;
#X obj 94 118 route 1;
#X obj 167 144 unpack 0 0;
#X obj 55 58 poly 1 1;
#X obj 331 170 s pdpulp_p1;
#X obj 271 167 / 200;
#X obj 37 28 notein;
#X obj 304 145 s Main_Frequency_knob;
#X connect 0 0 6 0;
#X connect 0 0 8 0;
#X connect 1 0 2 0;
#X connect 2 0 3 0;
#X connect 3 0 0 0;
#X connect 4 0 1 0;
#X connect 4 1 1 1;
#X connect 4 2 1 2;
#X connect 6 0 5 0;
#X connect 7 0 4 0;
#X connect 7 1 4 1;
#X restore 447 22 pd midi_input;
#X obj 890 180 s Beat_Frequency_final;
#N canvas 206 234 834 667 initialise 0;
#X obj 406 -152 metro;
#X floatatom 416 -183 5 0 0 0 - - -, f 5;
#X obj 379 -164 tgl 15 0 empty empty empty 17 7 0 10 -262144 -1 -1
1 1;
#X msg 346 -120 bang;
#X obj 28 -192 loadbang;
#X msg 75 20 4, f 5;
#X msg 139 28 80;
#X msg 43 52 25, f 4;
#X text 324 -150 refresh;
#X msg 148 -158 60;
#X msg 95 -35 110;
#X msg 40 108 100, f 4;
#X obj 473 -173 / 10;
#X msg 526 -96 bang;
#X obj 540 -127 metro;
#X msg 33 181 75;
#X msg 25 251 50;
#X obj 73 133 s FM_mod_depth_knob;
#X obj 25 280 s FM_Freq_knob;
#X obj 315 22 s Beat_Frequency_knob;
#X obj 188 -38 s Main_Frequency_knob;
#X obj 91 100 s noise_resonance_knob;
#X obj 76 77 s square_pwm_knob;
#X obj 409 231 s noise_cutoff_knob;
#X obj 402 193 s noise_panning_knob;
#X obj 35 216 s master_volume_knob;
#X connect 0 0 3 0;
#X connect 1 0 0 1;
#X connect 1 0 12 0;
#X connect 2 0 0 0;
#X connect 3 0 19 0;
#X connect 3 0 20 0;
#X connect 4 0 10 0;
#X connect 4 0 5 0;
#X connect 4 0 6 0;
#X connect 4 0 7 0;
#X connect 4 0 9 0;
#X connect 4 0 2 0;
#X connect 4 0 11 0;
#X connect 4 0 15 0;
#X connect 4 0 16 0;
#X connect 5 0 19 0;
#X connect 7 0 21 0;
#X connect 7 0 22 0;
#X connect 9 0 1 0;
#X connect 10 0 20 0;
#X connect 12 0 14 0;
#X connect 13 0 23 0;
#X connect 13 0 24 0;
#X connect 14 0 13 0;
#X connect 15 0 17 0;
#X connect 15 0 25 0;
#X connect 16 0 18 0;
#X connect 16 0 23 0;
#X connect 16 0 24 0;
#X restore 448 49 pd initialise;
#N canvas 0 98 450 300 not_used 0;
#N canvas 1103 233 616 368 volume 0;
#X obj 121 161 / 127;
#X obj 121 188 pack 0 50;
#X obj 137 231 line;
#X obj 106 113 hsl 128 15 0 127 0 0 empty volume_master empty -2 -8
0 10 -262144 -1 -1 0 1;
#X obj 121 298 s~ master_volume;
#X connect 0 0 1 0;
#X connect 1 0 2 0;
#X connect 2 0 4 0;
#X connect 3 0 0 0;
#X coords 0 -1 1 1 140 40 1 100 100;
#X restore 228 101 pd volume master;
#X obj 83 91 *~;
#X obj 187 94 *~;
#X obj 111 69 r~ master_volume;
#X obj 121 122 dac~;
#X text 164 126 not used;
#X connect 3 0 2 1;
#X connect 3 0 1 1;
#X restore 454 174 pd not_used;
#N canvas 546 183 699 557 mobmuplat 0;
#X obj 87 49 receive fromGUI;
#X obj 87 81 list trim;
#X obj 76 202 route /mySlider1;
#X obj 46 288 s Main_Frequency_knob;
#X obj 254 119 route /mySlider2;
#X obj 250 170 s Beat_Frequency_knob;
#X obj 419 112 route /myKnob1;
#X obj 430 152 s FM_volume;
#X obj 523 125 route /myKnob2;
#X obj 534 165 s FM_Freq_knob;
#X obj 362 332 s noise_volume;
#X obj 351 292 route /myKnob3;
#X obj 196 283 route /myKnob4;
#X obj 207 323 s FM_mod_depth_knob;
#X connect 0 0 1 0;
#X connect 1 0 2 0;
#X connect 1 0 4 0;
#X connect 1 0 6 0;
#X connect 1 0 8 0;
#X connect 1 0 12 0;
#X connect 1 0 11 0;
#X connect 2 0 3 0;
#X connect 4 0 5 0;
#X connect 6 0 7 0;
#X connect 8 0 9 0;
#X connect 11 0 10 0;
#X connect 12 0 13 0;
#X restore 454 152 pd mobmuplat;
#N canvas 95 192 847 847 engine 0;
#X floatatom 198 -83 5 0 0 0 - - -, f 5;
#X floatatom 430 -94 5 0 0 0 - - -, f 5;
#X obj 481 -23 osc~ 128;
#X obj 375 -126 +;
#X obj 263 -123 -;
#X floatatom 399 -179 5 0 0 0 - - -, f 5;
#X obj 331 -164 / 2;
#X obj 212 8 phasor~;
#X obj 452 36 phasor~;
#X obj 491 108 *~;
#X obj 309 87 *~;
#N canvas 76 118 730 649 FM 0;
#X text 79 67 frequency;
#X floatatom 95 199 4 0 0 0 - - -, f 4;
#X text 80 52 modulation;
#X obj 80 170 *~;
#X text 130 142 modulation;
#X text 130 156 depth;
#X floatatom 98 143 4 0 0 0 - - -, f 4;
#X obj 80 221 +~;
#X text 128 204 frequency;
#X obj 94 113 tabosc4~ pitchmod14;
#X text 128 190 carrier;
#X obj 80 248 outlet~;
#X obj 265 86 inlet;
#X floatatom 163 69 5 0 0 0 - - -, f 5;
#X obj 304 47 r FM_mod_depth;
#X obj 231 22 r FM_Freq;
#X connect 1 0 7 1;
#X connect 3 0 7 0;
#X connect 6 0 3 1;
#X connect 7 0 11 0;
#X connect 9 0 3 0;
#X connect 12 0 1 0;
#X connect 13 0 9 0;
#X connect 14 0 6 0;
#X connect 15 0 13 0;
#X restore 278 -57 pd FM;
#N canvas 1081 197 730 603 FM 0;
#X text 77 65 frequency;
#X floatatom 95 199 4 0 0 0 - - -, f 4;
#X text 78 50 modulation;
#X obj 80 170 *~;
#X text 130 142 modulation;
#X text 130 156 depth;
#X floatatom 98 143 4 0 0 0 - - -, f 4;
#X obj 80 221 +~;
#X text 128 204 frequency;
#X obj 94 113 tabosc4~ pitchmod14;
#X text 128 190 carrier;
#X obj 80 248 outlet~;
#X obj 265 86 inlet;
#X floatatom 163 69 5 0 0 0 - - -, f 5;
#X obj 299 54 r FM_mod_depth;
#X obj 204 19 r FM_Freq, f 6;
#X connect 1 0 7 1;
#X connect 3 0 7 0;
#X connect 6 0 3 1;
#X connect 7 0 11 0;
#X connect 9 0 3 0;
#X connect 12 0 1 0;
#X connect 13 0 9 0;
#X connect 14 0 6 0;
#X connect 15 0 13 0;
#X restore 479 -52 pd FM;
#X obj 106 -44 osc~ 120;
#X obj 574 65 *~;
#X obj 72 40 *~;
#X obj 80 192 s~ OUT_left;
#X obj 432 286 s~ OUT_right;
#X obj 221 -211 r Main_Frequency;
#X obj 207 370 tabwrite~ azerty;
#X obj 192 397 table azerty;
#X obj 47 210 tgl 15 0 empty empty empty 17 7 0 10 -262144 -1 -1 0
1;
#X obj 59 235 metro 100;
#N canvas 1100 98 450 323 square~ 0;
#X obj 111 45 phasor~;
#X obj 94 6 inlet;
#X obj 124 157 outlet~;
#X obj 127 100 expr~ $v1 > $v2;
#X obj 225 54 r square_pwm;
#X obj 229 76 / 100;
#X connect 0 0 3 0;
#X connect 1 0 0 0;
#X connect 3 0 2 0;
#X connect 4 0 5 0;
#X connect 5 0 3 1;
#X restore 130 27 pd square~;
#N canvas 1225 257 450 300 square~ 0;
#X obj 111 45 phasor~;
#X obj 94 6 inlet;
#X obj 124 157 outlet~;
#X obj 127 100 expr~ $v1 > $v2;
#X obj 225 54 r square_pwm;
#X obj 229 76 / 100;
#X connect 0 0 3 0;
#X connect 1 0 0 0;
#X connect 3 0 2 0;
#X connect 4 0 5 0;
#X connect 5 0 3 1;
#X restore 566 -52 pd square~;
#X obj 495 250 r~ noise_OUT_right;
#X obj 31 135 r~ noise_OUT_left;
#X obj 345 -212 r Beat_Frequency_final;
#X obj 287 -104 r sine_volume;
#X obj 343 -76 r FM_volume;
#X obj 413 -20 osc~ 120;
#X obj 309 -14 osc~ 128;
#X obj 200 62 s~ phasor_left;
#X obj 166 103 r~ phase_OUT_left;
#X obj 411 72 s~ phasor_right;
#X obj 392 201 r~ phase_OUT_right;
#X obj 87 75 s~ square_left;
#X obj 666 42 s~ square_right;
#X text 22 -183 This one is the main engine;
#X connect 0 0 7 0;
#X connect 0 0 11 0;
#X connect 0 0 13 0;
#X connect 0 0 23 0;
#X connect 1 0 8 0;
#X connect 1 0 12 0;
#X connect 1 0 24 0;
#X connect 1 0 30 0;
#X connect 2 0 9 0;
#X connect 3 0 1 0;
#X connect 4 0 0 0;
#X connect 5 0 6 0;
#X connect 6 0 3 1;
#X connect 6 0 4 1;
#X connect 7 0 32 0;
#X connect 8 0 34 0;
#X connect 9 0 17 0;
#X connect 10 0 16 0;
#X connect 10 0 19 0;
#X connect 11 0 31 0;
#X connect 12 0 2 0;
#X connect 13 0 15 0;
#X connect 14 0 17 0;
#X connect 15 0 16 0;
#X connect 18 0 4 0;
#X connect 18 0 3 0;
#X connect 21 0 22 0;
#X connect 22 0 19 0;
#X connect 23 0 36 0;
#X connect 24 0 37 0;
#X connect 25 0 17 0;
#X connect 26 0 16 0;
#X connect 27 0 5 0;
#X connect 28 0 15 1;
#X connect 28 0 14 1;
#X connect 29 0 9 1;
#X connect 29 0 10 1;
#X connect 30 0 14 0;
#X connect 31 0 10 0;
#X connect 33 0 16 0;
#X connect 35 0 17 0;
#X restore 448 77 pd engine;
#N canvas 52 139 1022 683 phase_sq_filter 0;
#X obj 388 150 *~, f 7;
#X obj 399 508 bob~;
#X obj 769 143 / 25;
#X obj 411 253 line~;
#X obj 808 143 mtof;
#X obj 814 241 pack 0 50;
#X floatatom 810 190 7 0 0 0 - - -, f 7;
#X obj 169 506 bob~;
#X obj 297 439 +;
#X obj 158 391 -;
#X obj 212 259 / 2;
#X obj 346 369 line;
#X obj 776 33 r phase_resonance;
#X obj 809 87 r phase_cutoff;
#X obj 489 69 r phasor_volume;
#X obj 210 119 r phase_panning;
#X obj 375 56 r~ phasor_left;
#X obj 120 570 s~ phase_OUT_left;
#X obj 570 159 *~, f 7;
#X obj 612 34 r~ phasor_right;
#X obj 411 562 s~ phase_OUT_right;
#X obj 586 430 *~, f 7;
#X obj 768 439 *~, f 7;
#X obj 808 314 r~ square_right;
#X obj 693 357 r square_volume;
#X obj 573 336 r~ square_left;
#X connect 0 0 7 0;
#X connect 1 0 20 0;
#X connect 2 0 3 0;
#X connect 3 0 1 2;
#X connect 3 0 7 2;
#X connect 4 0 6 0;
#X connect 5 0 11 0;
#X connect 6 0 5 0;
#X connect 7 0 17 0;
#X connect 8 0 1 1;
#X connect 9 0 7 1;
#X connect 10 0 8 1;
#X connect 10 0 9 1;
#X connect 11 0 9 0;
#X connect 11 0 8 0;
#X connect 12 0 2 0;
#X connect 13 0 4 0;
#X connect 14 0 0 1;
#X connect 14 0 18 1;
#X connect 15 0 10 0;
#X connect 16 0 0 0;
#X connect 18 0 1 0;
#X connect 19 0 18 0;
#X connect 21 0 7 0;
#X connect 22 0 1 0;
#X connect 23 0 22 0;
#X connect 24 0 21 1;
#X connect 24 0 22 1;
#X connect 25 0 21 0;
#X restore 448 101 pd phase_sq_filter;
#N canvas 1059 215 773 702 noise_filter 0;
#X obj 403 103 noise~;
#X obj 404 232 *~, f 7;
#X obj 413 541 bob~;
#X obj 544 264 / 25;
#X obj 427 335 line~;
#X obj 583 264 mtof;
#X obj 589 362 pack 0 50;
#X floatatom 586 311 7 0 0 0 - - -, f 7;
#X obj 201 549 bob~;
#X obj 302 508 +;
#X obj 147 504 -;
#X obj 228 341 / 2;
#X obj 362 451 line;
#X obj 551 154 r noise_resonance;
#X obj 226 201 r noise_panning;
#X obj 584 208 r noise_cutoff;
#X obj 452 627 s~ noise_OUT_right;
#X obj 149 621 s~ noise_OUT_left;
#X obj 445 135 r noise_volume;
#X connect 0 0 1 0;
#X connect 1 0 2 0;
#X connect 1 0 8 0;
#X connect 2 0 16 0;
#X connect 3 0 4 0;
#X connect 4 0 2 2;
#X connect 4 0 8 2;
#X connect 5 0 7 0;
#X connect 6 0 12 0;
#X connect 7 0 6 0;
#X connect 8 0 17 0;
#X connect 9 0 2 1;
#X connect 10 0 8 1;
#X connect 11 0 9 1;
#X connect 11 0 10 1;
#X connect 12 0 10 0;
#X connect 12 0 9 0;
#X connect 13 0 3 0;
#X connect 14 0 11 0;
#X connect 15 0 5 0;
#X connect 18 0 1 1;
#X restore 447 126 pd noise_filter;
#X floatatom 740 621 5 0 200 0 - phase_resonance_knob phase_resonance
, f 5;
#X floatatom 605 622 5 0 140 0 - phase_cutoff_knob phase_cutoff, f
5;
#X floatatom 635 652 5 0 0 0 - phase_panning_knob phase_panning, f
5;
#X text 641 622 phase cut off;
#X text 775 621 phase resonance;
#X text 677 653 phase cutt off panning effect;
#X obj 902 723 s Main_Frequency_knob;
#X obj 901 689 keyboard;
#X obj 904 765 loadbang;
#X msg 904 802 Binaural Synth by Garvalf;
#X obj 904 833 print -n;
#N canvas 45 322 450 323 README 0;
#X msg 68 93 https://github.com/farvardin/binaural-synth;
#X restore 900 565 pd README;
#X connect 5 0 14 0;
#X connect 6 0 34 0;
#X connect 14 0 44 0;
#X connect 23 0 1 0;
#X connect 24 0 1 1;
#X connect 34 0 14 1;
#X connect 41 0 21 0;
#X connect 42 0 22 0;
#X connect 58 0 57 0;
#X connect 59 0 60 0;
#X connect 60 0 61 0;
#X coords 0 0 1 1 280 750 0;
