#N canvas 153 93 1070 964 10;
#X obj 594 -12 cnv 15 287 755 empty empty empty 46 13 0 14 -163105
-66577 0;
#X floatatom 193 246 5 0 0 0 - - -, f 5;
#X floatatom 495 258 5 0 0 0 - - -, f 5;
#X obj 283 321 osc~ 120;
#X obj 417 327 osc~ 128;
#X obj 528 468 *~;
#X obj 194 471 *~;
#X obj 414 216 +;
#X obj 285 220 -;
#N canvas 938 126 877 802 output 0;
#X obj 353 490 t b;
#X obj 353 437 f;
#X obj 353 515 f;
#X msg 467 514 0;
#X obj 353 467 moses 1;
#X obj 467 486 t b f;
#X obj 433 447 moses 1;
#X obj 29 97 dbtorms;
#X obj 85 170 inlet~;
#X msg 287 315 \; pd dsp 1;
#X obj 29 170 line~;
#X obj 64 242 *~;
#X obj 64 272 dac~;
#X obj 29 127 pack 0 50;
#X text 209 141 audio in;
#X text 138 464 test if less than 1 -->;
#X text 104 491 if true convert to bang -->;
#X text 183 99 <-- convert from dB to linear units;
#X floatatom 323 219 3 0 100 0 dB - -, f 3;
#X obj 350 240 bng 15 250 50 0 empty empty mute -38 7 0 12 -262144
-1 -1;
#X text 191 125 <-- make a ramp to avoid clicks or zipper noise;
#X obj 148 170 inlet~;
#X obj 154 241 *~;
#X text 373 378 MUTE logic:;
#X obj 323 174 r \$0-master-lvl;
#X obj 353 541 s \$0-master-lvl;
#X obj 323 279 s \$0-master-out;
#X obj 29 71 r \$0-master-out;
#X obj 435 408 r \$0-master-out;
#X text 60 10 Level control abstraction \, used in many of the Pd example
patches. The "level" and "mute" controls show up on the parent \, calling
patch.;
#X text 66 517 previous nonzero master-lvl -->;
#X text 138 421 recall previous;
#X text 138 439 value of master-lvl -->;
#X text 39 319 automatically start DSP -->;
#X obj 85 192 hip~ 3;
#X obj 147 192 hip~ 3;
#X obj 478 176 loadbang;
#X msg 480 222 85;
#X obj 564 193 inlet;
#X connect 0 0 2 0;
#X connect 1 0 4 0;
#X connect 2 0 25 0;
#X connect 3 0 25 0;
#X connect 4 0 0 0;
#X connect 4 1 5 0;
#X connect 5 0 3 0;
#X connect 6 1 2 1;
#X connect 7 0 13 0;
#X connect 8 0 34 0;
#X connect 10 0 22 0;
#X connect 10 0 11 0;
#X connect 11 0 12 0;
#X connect 13 0 10 0;
#X connect 18 0 9 0;
#X connect 18 0 26 0;
#X connect 19 0 1 0;
#X connect 21 0 35 0;
#X connect 22 0 12 1;
#X connect 24 0 18 0;
#X connect 27 0 7 0;
#X connect 28 0 1 1;
#X connect 28 0 6 0;
#X connect 34 0 11 1;
#X connect 35 0 22 1;
#X connect 36 0 37 0;
#X connect 37 0 18 0;
#X connect 38 0 18 0;
#X coords 0 -1 1 1 65 55 1 300 200;
#X restore 322 556 pd output;
#X floatatom 544 229 5 0 0 0 - - -, f 5;
#X obj 353 174 / 2;
#X obj 13 -17 notein 1;
#X obj 257 91 mtof;
#X obj 400 24 metro;
#X floatatom 410 -7 5 0 0 0 - - -, f 5;
#X obj 373 12 tgl 15 0 empty empty empty 17 7 0 10 -262144 -1 -1 1
1;
#X msg 340 56 bang;
#X obj 31 110 loadbang;
#X msg 92 138 4, f 5;
#X msg 133 204 80;
#X msg 37 228 25, f 4;
#X text 774 114 Hz;
#X text 318 26 refresh;
#X msg 34 79 60;
#X text 775 643 noise resonance;
#X obj 147 344 phasor~;
#X obj 491 402 phasor~;
#X floatatom 740 643 5 0 200 0 - - noise_resonance, f 5;
#X floatatom 714 150 5 0 0 0 - - -, f 5;
#X floatatom 786 149 5 -100 100 0 - - -, f 5;
#X floatatom 732 115 5 0 0 0 - - -, f 5;
#N canvas 547 235 616 391 volume 0;
#X obj 121 161 / 127;
#X obj 121 188 pack 0 50;
#X obj 137 231 line;
#X obj 121 298 outlet~;
#X obj 106 113 hsl 110 15 0 127 0 0 empty empty empty -2 -8 0 10 -262144
-1 -1 0 1;
#X connect 0 0 1 0;
#X connect 1 0 2 0;
#X connect 2 0 3 0;
#X connect 4 0 0 0;
#X coords 0 -1 1 1 125 40 1 100 100;
#X restore 610 533 pd volume phasor;
#N canvas 1103 233 616 368 volume 0;
#X obj 121 161 / 127;
#X obj 121 188 pack 0 50;
#X obj 137 231 line;
#X obj 106 113 hsl 128 15 0 127 0 0 empty empty empty -2 -8 0 10 -262144
-1 -1 10300 1;
#X obj 121 298 s~ noise_volume;
#X connect 0 0 1 0;
#X connect 1 0 2 0;
#X connect 2 0 4 0;
#X connect 3 0 0 0;
#X coords 0 -1 1 1 140 40 1 100 100;
#X restore 616 589 pd volume noise;
#X floatatom 608 644 5 0 140 0 - - noise_cutoff, f 5;
#X text 753 149 Hz;
#X text 613 258 Add some effects with :;
#X obj 620 -1 cnv 15 197 36 empty empty Binaural\ Synth 24 15 0 18
-129822 -66577 0;
#X obj 802 204 +;
#X msg 41 174 110;
#X floatatom 635 674 5 0 0 0 - - noise_panning, f 5;
#X text 677 675 noise panning effect;
#X msg 34 284 100, f 4;
#X obj 424 416 *~;
#X obj 312 425 *~;
#X obj 463 22 / 10;
#X msg 560 534 bang;
#X obj 512 26 metro;
#X floatatom 609 708 5 0 200 0 - - -, f 5;
#X text 648 708 master volume;
#X msg 27 357 75;
#N canvas 893 309 730 580 FM 0;
#X text 77 65 frequency;
#X floatatom 95 199 4 0 0 0 - - -, f 4;
#X text 78 50 modulation;
#X obj 80 170 *~;
#X text 130 142 modulation;
#X text 130 156 depth;
#X floatatom 98 143 4 0 0 0 - - -, f 4;
#X obj 80 221 +~;
#X text 128 204 frequency;
#X obj 94 113 tabosc4~ pitchmod14;
#X text 128 190 carrier;
#X obj 80 248 outlet~;
#X obj 265 86 inlet;
#X floatatom 163 69 5 0 0 0 - - -, f 5;
#X obj 304 47 r FM_mod_depth;
#X obj 237 22 r FM_Freq;
#X connect 1 0 7 1;
#X connect 3 0 7 0;
#X connect 6 0 3 1;
#X connect 7 0 11 0;
#X connect 9 0 3 0;
#X connect 12 0 1 0;
#X connect 13 0 9 0;
#X connect 14 0 6 0;
#X connect 15 0 13 0;
#X restore 252 278 pd FM;
#X f 6;
#N canvas 1000 451 730 580 FM 0;
#X text 77 65 frequency;
#X floatatom 95 199 4 0 0 0 - - -, f 4;
#X text 78 50 modulation;
#X obj 80 170 *~;
#X text 130 142 modulation;
#X text 130 156 depth;
#X floatatom 98 143 4 0 0 0 - - -, f 4;
#X obj 80 221 +~;
#X text 128 204 frequency;
#X obj 94 113 tabosc4~ pitchmod14;
#X text 128 190 carrier;
#X obj 80 248 outlet~;
#X obj 265 86 inlet;
#X floatatom 163 69 5 0 0 0 - - -, f 5;
#X obj 299 54 r FM_mod_depth;
#X obj 204 19 r FM_Freq;
#X connect 1 0 7 1;
#X connect 3 0 7 0;
#X connect 6 0 3 1;
#X connect 7 0 11 0;
#X connect 9 0 3 0;
#X connect 12 0 1 0;
#X connect 13 0 9 0;
#X connect 14 0 6 0;
#X connect 15 0 13 0;
#X restore 449 285 pd FM;
#X f 6;
#X obj 381 285 osc~ 120;
#X obj 513 285 osc~ 128;
#X obj 548 400 *~;
#X obj 386 406 *~;
#N canvas 1103 233 616 368 volume 0;
#X obj 121 161 / 127;
#X obj 121 188 pack 0 50;
#X obj 137 231 line;
#X obj 121 298 outlet~;
#X obj 106 113 hsl 128 15 0 127 0 0 empty empty empty -2 -8 0 10 -262144
-1 -1 10000 1;
#X obj 121 34 loadbang;
#X msg 121 59 100;
#X connect 0 0 1 0;
#X connect 1 0 2 0;
#X connect 2 0 3 0;
#X connect 4 0 0 0;
#X connect 5 0 6 0;
#X connect 6 0 4 0;
#X coords 0 -1 1 1 140 40 1 100 100;
#X restore 640 195 pd volume sine;
#N canvas 1103 233 616 368 volume 0;
#X obj 121 161 / 127;
#X obj 121 188 pack 0 50;
#X obj 137 231 line;
#X obj 121 298 outlet~;
#X obj 106 113 hsl 128 15 0 127 0 0 empty empty empty -2 -8 0 10 -262144
-1 -1 5000 1;
#X obj 121 34 loadbang;
#X msg 121 59 50;
#X connect 0 0 1 0;
#X connect 1 0 2 0;
#X connect 2 0 3 0;
#X connect 4 0 0 0;
#X connect 5 0 6 0;
#X connect 6 0 4 0;
#X coords 0 -1 1 1 140 40 1 100 100;
#X restore 643 288 pd volume FM;
#X floatatom 702 340 5 0 0 0 - - -, f 5;
#X floatatom 834 342 5 0 0 0 - - -, f 5;
#X obj 914 392 s FM_Freq;
#X obj 914 364 s FM_mod_depth;
#X msg 19 427 50;
#X obj 77 485 s~ OUT_left;
#X obj 440 677 s~ OUT_right;
#X obj 271 493 r~ OUT_left;
#X obj 435 470 r~ OUT_right;
#X text 743 341 FM mod depth:;
#X text 614 115 Carrier Frequency:;
#X text 614 150 Beat Frequency:;
#X text 618 340 FM mod freq:;
#X text 707 375 FM Wave;
#X obj 42 44 pack 0 0 0;
#X obj 70 73 route 1;
#X obj 143 99 unpack 0 0;
#X obj 31 13 poly 1 1;
#X obj 156 14 r Main_Frequency;
#X obj 157 42 r Beat_Frequency;
#N canvas 0 0 450 300 (subpatch) 0;
#X array pitchmod14 131 float 1 black black;
#A 0 -0.423689 -0.345228 -0.313844 -0.298151 -0.282459 -0.266767 -0.258921
-0.251075 -0.235382 -0.21969 -0.211844 -0.203998 -0.188306 -0.28247
-0.266777 -0.261546 -0.256315 -0.251085 -0.251085 -0.251085 -0.245854
-0.240623 -0.235392 -0.235392 -0.235392 -0.235392 -0.235392 -0.235392
-0.235392 -0.235392 -0.235392 -0.235392 -0.235392 -0.235392 -0.235392
-0.235392 -0.235392 -0.235392 -0.235392 -0.235392 -0.235392 -0.235392
-0.251085 -0.256315 -0.261546 -0.266777 -0.274623 -0.28247 -0.290316
-0.298162 -0.298162 -0.298162 -0.313855 -0.313855 -0.313855 -0.329547
-0.329547 -0.329547 -0.329547 -0.337393 -0.345239 -0.345239 -0.345239
-0.345239 -0.360932 0.411925 0.400156 0.388386 0.376617 0.376617 0.360925
0.345232 0.337386 0.32954 0.313847 0.298155 0.290309 0.282462 0.282462
0.26677 0.258924 0.251077 0.251077 0.235385 0.227539 0.219692 0.219692
0.219692 0.204 0.204 0.204 0.188307 0.188307 0.188307 0.847391 0.847391
0.847391 0.847391 0.847391 0.847391 0.847391 0.847391 0.847391 0.847391
0.847391 0.847391 0.831699 0.823853 0.816006 0.800314 0.784621 0.753236
0.721852 0.109847 0.120308 0.13077 0.141231 0.149077 0.156923 0.156923
0.160847 0.16477 0.168693 0.172616 0.177846 0.183077 0.188308 0.193539
0.198769 0.204 0.235385;
#X coords 0 1.02 130 -1.02 258 130 1;
#X restore 609 394 graph;
#X obj 821 83 image garvalf.png 0;
#X text 622 41 by Garvalf;
#X text 641 644 noise cut off;
#X obj 831 205 / 100;
#N canvas 539 172 980 651 noise 0;
#X obj 403 103 noise~;
#X obj 404 232 *~, f 7;
#X obj 413 541 bob~;
#X obj 544 264 / 25;
#X obj 427 335 line~;
#X obj 583 264 mtof;
#X obj 589 362 pack 0 50;
#X floatatom 586 311 7 0 0 0 - - -, f 7;
#X obj 201 549 bob~;
#X obj 302 508 +;
#X obj 147 504 -;
#X obj 228 341 / 2;
#X obj 362 451 line;
#X obj 551 154 r noise_resonance;
#X obj 226 201 r noise_panning;
#X obj 584 208 r noise_cutoff;
#X obj 445 135 r~ noise_volume;
#X obj 452 627 s~ noise_OUT_right;
#X obj 149 621 s~ noise_OUT_left;
#X connect 0 0 1 0;
#X connect 1 0 2 0;
#X connect 1 0 8 0;
#X connect 2 0 17 0;
#X connect 3 0 4 0;
#X connect 4 0 2 2;
#X connect 4 0 8 2;
#X connect 5 0 7 0;
#X connect 6 0 12 0;
#X connect 7 0 6 0;
#X connect 8 0 18 0;
#X connect 9 0 2 1;
#X connect 10 0 8 1;
#X connect 11 0 9 1;
#X connect 11 0 10 1;
#X connect 12 0 10 0;
#X connect 12 0 9 0;
#X connect 13 0 3 0;
#X connect 14 0 11 0;
#X connect 15 0 5 0;
#X connect 16 0 1 1;
#X restore 900 603 pd noise filter;
#X obj 185 555 tabwrite~ azerty;
#X obj 210 580 table azerty;
#X obj 35 499 tgl 15 0 empty empty empty 17 7 0 10 -262144 -1 -1 0
1;
#X obj 57 528 metro 100;
#N canvas 1245 277 450 300 square~ 0;
#X obj 111 45 phasor~;
#X obj 94 6 inlet;
#X obj 124 157 outlet~;
#X obj 127 100 expr~ $v1 > $v2;
#X obj 225 54 r square_pwm;
#X obj 229 76 / 100;
#X connect 0 0 3 0;
#X connect 1 0 0 0;
#X connect 3 0 2 0;
#X connect 4 0 5 0;
#X connect 5 0 3 1;
#X restore 214 347 pd square~;
#X obj 900 552 s square_pwm;
#X obj 837 583 nbx 2 15 1 99 0 0 empty empty empty 0 -8 0 12 -179695
-1 -1 1 256 0;
#N canvas 1199 212 616 391 volume 0;
#X obj 121 161 / 127;
#X obj 121 188 pack 0 50;
#X obj 137 231 line;
#X obj 121 298 outlet~;
#X obj 106 113 hsl 110 15 0 127 0 0 empty empty empty -2 -8 0 10 -262144
-1 -1 0 1;
#X connect 0 0 1 0;
#X connect 1 0 2 0;
#X connect 2 0 3 0;
#X connect 4 0 0 0;
#X coords 0 -1 1 1 125 40 1 100 100;
#X restore 747 533 pd volume square;
#X obj 166 512 *~;
#X obj 524 519 *~;
#N canvas 1245 277 450 300 square~ 0;
#X obj 111 45 phasor~;
#X obj 94 6 inlet;
#X obj 124 157 outlet~;
#X obj 127 100 expr~ $v1 > $v2;
#X obj 225 54 r square_pwm;
#X obj 229 76 / 100;
#X connect 0 0 3 0;
#X connect 1 0 0 0;
#X connect 3 0 2 0;
#X connect 4 0 5 0;
#X connect 5 0 3 1;
#X restore 470 434 pd square~;
#X text 786 582 sq pwm:;
#X obj 477 610 r~ noise_OUT_right;
#X obj 71 414 r~ noise_OUT_left;
#X connect 1 0 26 0;
#X connect 1 0 51 0;
#X connect 1 0 53 0;
#X connect 1 0 89 0;
#X connect 2 0 27 0;
#X connect 2 0 52 0;
#X connect 2 0 54 0;
#X connect 2 0 95 0;
#X connect 3 0 44 0;
#X connect 4 0 43 0;
#X connect 5 0 65 0;
#X connect 6 0 64 0;
#X connect 7 0 2 0;
#X connect 8 0 1 0;
#X connect 10 0 11 0;
#X connect 11 0 7 1;
#X connect 11 0 8 1;
#X connect 12 0 76 0;
#X connect 12 1 76 1;
#X connect 13 0 31 0;
#X connect 14 0 17 0;
#X connect 15 0 14 1;
#X connect 15 0 45 0;
#X connect 16 0 14 0;
#X connect 17 0 31 0;
#X connect 17 0 29 0;
#X connect 18 0 39 0;
#X connect 18 0 19 0;
#X connect 18 0 20 0;
#X connect 18 0 21 0;
#X connect 18 0 24 0;
#X connect 18 0 16 0;
#X connect 18 0 42 0;
#X connect 18 0 50 0;
#X connect 18 0 63 0;
#X connect 19 0 29 0;
#X connect 20 0 34 0;
#X connect 21 0 28 0;
#X connect 24 0 15 0;
#X connect 26 0 6 0;
#X connect 27 0 5 0;
#X connect 29 0 38 0;
#X connect 30 0 83 0;
#X connect 31 0 7 0;
#X connect 31 0 8 0;
#X connect 32 0 5 1;
#X connect 32 0 6 1;
#X connect 38 0 10 0;
#X connect 39 0 31 0;
#X connect 42 0 40 0;
#X connect 43 0 65 0;
#X connect 44 0 64 0;
#X connect 44 0 85 0;
#X connect 45 0 47 0;
#X connect 46 0 34 0;
#X connect 46 0 40 0;
#X connect 47 0 46 0;
#X connect 48 0 9 2;
#X connect 50 0 48 0;
#X connect 50 0 60 0;
#X connect 51 0 3 0;
#X connect 52 0 4 0;
#X connect 53 0 56 0;
#X connect 54 0 55 0;
#X connect 55 0 65 0;
#X connect 56 0 64 0;
#X connect 57 0 55 1;
#X connect 57 0 56 1;
#X connect 58 0 43 1;
#X connect 58 0 44 1;
#X connect 59 0 61 0;
#X connect 60 0 62 0;
#X connect 63 0 59 0;
#X connect 66 0 9 0;
#X connect 67 0 9 1;
#X connect 73 0 74 0;
#X connect 74 0 75 0;
#X connect 75 0 13 0;
#X connect 76 0 73 0;
#X connect 76 1 73 1;
#X connect 76 2 73 2;
#X connect 77 0 31 0;
#X connect 78 0 29 0;
#X connect 83 0 38 1;
#X connect 87 0 88 0;
#X connect 88 0 85 0;
#X connect 89 0 93 0;
#X connect 91 0 90 0;
#X connect 92 0 94 1;
#X connect 92 0 93 1;
#X connect 93 0 64 0;
#X connect 94 0 65 0;
#X connect 95 0 94 0;
#X connect 97 0 65 0;
#X connect 98 0 64 0;
#X coords 0 -1 1 1 280 750 2 597 -10;
