#N canvas 360 138 1102 679 12;
#N canvas 1177 340 648 541 sequence 0;
#X floatatom 283 73 8 0 0 0 - - -, f 8;
#X msg 38 209 300;
#X msg 75 209 8;
#X msg 279 241 6;
#X msg 215 238 250;
#X obj 128 154 bang;
#X msg 227 30 stop;
#X obj 138 60 bang;
#X msg 137 31 start;
#X obj 78 122 delay;
#X obj 202 187 delay;
#X obj 269 145 / 2;
#X obj 328 166 / 2;
#X text 388 229 You can define here your own sequence of frequencies
and beats, f 29;
#X obj 180 90 metro;
#X obj 537 17 loadbang;
#X msg 542 77 5000;
#X text 586 76 ms;
#X msg 433 24 5;
#X obj 488 148 * 1000;
#X text 485 65 s;
#X floatatom 442 66 5 0 0 0 - - -, f 5;
#X obj 228 327 s Beat_Frequency_knob;
#X obj 36 329 s Main_Frequency_knob;
#X connect 0 0 11 0;
#X connect 0 0 12 0;
#X connect 0 0 14 1;
#X connect 1 0 23 0;
#X connect 2 0 22 0;
#X connect 3 0 22 0;
#X connect 4 0 23 0;
#X connect 5 0 10 0;
#X connect 6 0 14 0;
#X connect 7 0 14 0;
#X connect 7 0 1 0;
#X connect 7 0 2 0;
#X connect 8 0 7 0;
#X connect 9 0 2 0;
#X connect 9 0 1 0;
#X connect 9 0 5 0;
#X connect 10 0 3 0;
#X connect 10 0 4 0;
#X connect 11 0 9 1;
#X connect 12 0 10 1;
#X connect 14 0 9 0;
#X connect 15 0 16 0;
#X connect 15 0 18 0;
#X connect 16 0 0 0;
#X connect 18 0 21 0;
#X connect 19 0 0 0;
#X connect 21 0 19 0;
#X restore 663 209 pd sequence;
#N canvas 354 363 783 679 presets 0;
#X text 291 28 Disclamer: Those presets are only for educational/entertainment
purposes and are not claimed to be based on scientifical researches.
;
#X obj 605 249 s Beat_Frequency_knob;
#X obj 602 188 s Main_Frequency_knob;
#X msg 36 42 Lucid Dreaming \; mfk 174 \; bfk 3;
#X obj 512 120 r mfk;
#X obj 565 217 r bfk;
#X msg 30 163 Astral Projection \; mfk 852 \; bfk 6;
#X obj 31 125 r preset_astral_projection;
#X obj 36 16 r preset_lucid_dreaming;
#X msg 40 271 Energy \; mfk 285 \; bfk 10;
#X obj 42 242 r preset_energy;
#X obj 48 385 r preset_sleep;
#X msg 45 423 Sleep \; mfk 432 \; bfk 3.4;
#X obj 44 629 r preset_delta;
#X msg 41 667 delta \; mfk 108 \; bfk 3;
#X obj 178 631 r preset_theta;
#X msg 175 669 theta \; mfk 108 \; bfk 6;
#X obj 308 627 r preset_alpha;
#X obj 442 631 r preset_beta;
#X msg 439 669 beta \; mfk 108 \; bfk 25;
#X obj 556 639 r preset_gamma;
#X msg 305 665 alpha \; mfk 108 \; bfk 10;
#X msg 553 677 gamma \; mfk 108 \; bfk 50;
#X obj 12 231 bng 15 250 50 0 empty empty empty 17 7 0 10 -262144 -1
-1;
#X obj 16 336 bng 15 250 50 0 empty empty empty 17 7 0 10 -262144 -1
-1;
#X obj 10 28 bng 15 250 50 0 empty empty empty 17 7 0 10 -262144 -1
-1;
#X obj 355 223 bng 15 250 50 0 empty empty empty 17 7 0 10 -262144
-1 -1;
#X msg 395 342 Seq01 \; mfk 73.42 \; bfk 2;
#X connect 4 0 2 0;
#X connect 5 0 1 0;
#X connect 7 0 6 0;
#X connect 8 0 3 0;
#X connect 10 0 9 0;
#X connect 11 0 12 0;
#X connect 13 0 14 0;
#X connect 15 0 16 0;
#X connect 17 0 21 0;
#X connect 18 0 19 0;
#X connect 20 0 22 0;
#X connect 23 0 9 0;
#X connect 24 0 12 0;
#X connect 25 0 3 0;
#X connect 26 0 27 0;
#X restore 664 181 pd presets;
#N canvas 1009 134 603 417 volume 0;
#X obj 121 161 / 127;
#X obj 121 188 pack 0 50;
#X obj 137 231 line;
#X obj 121 13 loadbang;
#X msg 121 59 100;
#X obj 121 298 s sine_volume;
#X obj 347 105 r sine_volume_knob;
#X connect 0 0 1 0;
#X connect 1 0 2 0;
#X connect 2 0 5 0;
#X connect 3 0 4 0;
#X connect 4 0 0 0;
#X connect 6 0 0 0;
#X coords 0 -1 1 1 140 40 1 100 100;
#X restore 667 295 pd volume sine;
#N canvas 105 366 415 411 volume 0;
#X obj 115 163 / 127;
#X obj 121 188 pack 0 50;
#X obj 137 231 line;
#X obj 121 34 loadbang;
#X msg 121 59 50;
#X obj 121 298 s FM_volume;
#X obj 253 136 r FM_volume_knob;
#X connect 0 0 1 0;
#X connect 1 0 2 0;
#X connect 2 0 5 0;
#X connect 3 0 4 0;
#X connect 4 0 0 0;
#X connect 6 0 0 0;
#X coords 0 -1 1 1 140 40 1 100 100;
#X restore 667 352 pd volume FM;
#N canvas 404 207 827 588 viewport 0;
#X obj 77 299 s ViewPort;
#X msg 77 164 vis_size \$1 \$2;
#X msg 160 247 pos \$1 \$2;
#X msg 244 64 0 0;
#X msg 326 100 0 280;
#X obj 77 28 loadbang;
#X obj 331 57 r \$0-nextview1;
#X obj 229 7 r \$0-nextview0;
#X msg 443 77 \$0-nextview1;
#X msg 344 8 \$0-nextview0;
#X msg 77 97 550 280;
#X obj 408 134 r \$0-nextview2;
#X msg 520 154 \$0-nextview2;
#X text 79 428 To configure the view windows (change when the next
bang is clicked);
#X text 95 75 viewport size;
#X msg 402 177 0 560;
#X msg 454 260 0 840;
#X obj 460 217 r \$0-nextview3;
#X msg 572 237 \$0-nextview3;
#X msg 543 331 0 1120;
#X msg 661 308 \$0-nextview4;
#X obj 549 288 r \$0-nextview4;
#X connect 1 0 0 0;
#X connect 2 0 0 0;
#X connect 3 0 2 0;
#X connect 4 0 2 0;
#X connect 5 0 10 0;
#X connect 5 0 3 0;
#X connect 6 0 4 0;
#X connect 7 0 3 0;
#X connect 8 0 4 0;
#X connect 9 0 3 0;
#X connect 10 0 1 0;
#X connect 11 0 15 0;
#X connect 12 0 15 0;
#X connect 15 0 2 0;
#X connect 16 0 2 0;
#X connect 17 0 16 0;
#X connect 18 0 16 0;
#X connect 19 0 2 0;
#X connect 20 0 19 0;
#X connect 21 0 19 0;
#X restore 663 152 pd viewport;
#N canvas 599 112 616 414 volume 0;
#X obj 121 161 / 127;
#X obj 121 188 pack 0 50;
#X obj 137 231 line;
#X obj 121 298 s noise_volume;
#X obj 278 60 r noise_volume_knob;
#X connect 0 0 1 0;
#X connect 1 0 2 0;
#X connect 2 0 3 0;
#X connect 4 0 0 0;
#X coords 0 -1 1 1 140 40 1 100 100;
#X restore 667 409 pd volume noise;
#N canvas 2070 126 1035 849 variate 0;
#X msg 156 41 bang;
#X obj 144 96 metro;
#X floatatom 223 93 5 0 0 0 - - -, f 5;
#X obj 268 15 loadbang;
#X msg 272 44 500;
#X obj 92 447 s Beat_Frequency_knob;
#X obj 43 612 r Beat_Frequency_value;
#X obj 92 181 + 2;
#X msg 342 57 200;
#X obj 224 149 random 400;
#X msg 208 19 stop;
#N canvas 54 372 450 461 randomize 0;
#X obj 85 18 inlet;
#X obj 94 210 outlet;
#X obj 179 58 metro;
#X floatatom 258 55 5 0 0 0 - - -, f 5;
#X obj 356 76 + 300;
#X obj 127 143 + 12;
#X obj 73 97 random 4;
#X obj 259 111 random 1500;
#X obj 246 175 inlet;
#X connect 0 0 2 0;
#X connect 2 0 6 0;
#X connect 2 0 7 0;
#X connect 3 0 2 1;
#X connect 4 0 3 0;
#X connect 5 0 1 0;
#X connect 6 0 5 0;
#X connect 7 0 4 0;
#X connect 8 0 5 1;
#X restore 423 358 pd randomize;
#X msg 430 219 bang;
#X obj 394 545 s FM_Freq_knob;
#N canvas 32 247 450 369 randomize 0;
#X obj 85 18 inlet;
#X obj 179 58 metro;
#X floatatom 258 55 5 0 0 0 - - -, f 5;
#X obj 356 76 + 300;
#X obj 73 97 random 12;
#X obj 222 172 inlet;
#X obj 118 444 outlet;
#X floatatom 163 232 5 0 0 0 - - -, f 5;
#X obj 158 322 line;
#X floatatom 260 299 5 0 0 0 - - -, f 5;
#X msg 157 270 \$1 700;
#X obj 224 410 spigot;
#X obj 127 143 + 45;
#X obj 259 111 random 1400;
#X obj 264 378 r random_noise;
#X connect 0 0 1 0;
#X connect 1 0 4 0;
#X connect 1 0 13 0;
#X connect 2 0 1 1;
#X connect 3 0 2 0;
#X connect 4 0 12 0;
#X connect 5 0 12 1;
#X connect 7 0 10 0;
#X connect 8 0 11 0;
#X connect 10 0 8 0;
#X connect 10 0 9 0;
#X connect 11 0 6 0;
#X connect 12 0 7 0;
#X connect 13 0 3 0;
#X connect 14 0 11 1;
#X restore 505 252 pd randomize;
#X obj 651 425 s noise_cutoff_knob;
#X obj 784 260 s noise_resonance_knob;
#X msg 379 319 stop;
#X msg 591 213 stop;
#X obj 515 76 metro;
#X obj 594 16 loadbang;
#X msg 598 45 500;
#X obj 513 23 bng 15 250 50 0 empty empty empty 17 7 0 10 -262144 -1
-1;
#X obj 438 506 spigot;
#X obj 181 336 spigot;
#X floatatom 358 391 5 0 0 0 - - -, f 5;
#X obj 353 481 line;
#X floatatom 455 458 5 0 0 0 - - -, f 5;
#X msg 352 429 \$1 700;
#X floatatom 63 215 5 0 0 0 - - -, f 5;
#X obj 58 305 line;
#X msg 57 253 \$1 700;
#X obj 38 135 random 10;
#X obj 309 110 + 400;
#X obj 393 49 vsl 20 100 100 800 0 1 empty empty empty 0 -9 0 10 -204786
-1 -1 2800 1;
#X obj 153 153 vsl 20 100 1 20 0 1 empty rand_beat_freq empty 0 -9
0 10 -204786 -1 -1 900 1;
#X obj 535 322 vsl 20 100 1 30 0 1 empty rand_fm_freq empty 0 -9 0
10 -204786 -1 -1 1100 1;
#X obj 647 140 vsl 20 100 1 100 0 1 empty rand_noise_cutoff empty 0
-9 0 10 -204786 -1 -1 7300 1;
#N canvas 144 144 450 616 randomize 0;
#X obj 85 18 inlet;
#X obj 118 425 outlet;
#X obj 179 58 metro;
#X floatatom 258 55 5 0 0 0 - - -, f 5;
#X obj 356 76 + 300;
#X obj 259 111 random 1500;
#X obj 127 143 + 50;
#X obj 73 97 random 12;
#X obj 222 172 inlet;
#X floatatom 163 213 5 0 0 0 - - -, f 5;
#X obj 158 303 line;
#X floatatom 260 280 5 0 0 0 - - -, f 5;
#X msg 157 251 \$1 700;
#X obj 224 391 spigot;
#X obj 263 360 r random_noise;
#X connect 0 0 2 0;
#X connect 2 0 5 0;
#X connect 2 0 7 0;
#X connect 3 0 2 1;
#X connect 4 0 3 0;
#X connect 5 0 4 0;
#X connect 6 0 9 0;
#X connect 7 0 6 0;
#X connect 8 0 6 1;
#X connect 9 0 12 0;
#X connect 10 0 13 0;
#X connect 12 0 10 0;
#X connect 12 0 11 0;
#X connect 13 0 1 0;
#X connect 14 0 13 1;
#X restore 793 167 pd randomize;
#X obj 892 36 vsl 20 100 1 100 0 1 empty rand_noise_resonance empty
0 -9 0 10 -204786 -1 -1 8400 1;
#X msg 800 69 stop;
#N canvas 591 147 1 1 randomize 0;
#X obj 85 18 inlet;
#X obj 118 425 outlet;
#X obj 179 58 metro;
#X floatatom 258 55 5 0 0 0 - - -, f 5;
#X obj 356 76 + 300;
#X obj 259 111 random 1500;
#X obj 127 143 + 50;
#X obj 73 97 random 12;
#X obj 222 172 inlet;
#X floatatom 163 213 5 0 0 0 - - -, f 5;
#X obj 158 303 line;
#X floatatom 260 280 5 0 0 0 - - -, f 5;
#X msg 157 251 \$1 700;
#X obj 224 391 spigot;
#X obj 263 360 r random_noise;
#X connect 0 0 2 0;
#X connect 2 0 5 0;
#X connect 2 0 7 0;
#X connect 3 0 2 1;
#X connect 4 0 3 0;
#X connect 5 0 4 0;
#X connect 6 0 9 0;
#X connect 7 0 6 0;
#X connect 8 0 6 1;
#X connect 9 0 12 0;
#X connect 10 0 13 0;
#X connect 12 0 10 0;
#X connect 12 0 11 0;
#X connect 13 0 1 0;
#X connect 14 0 13 1;
#X restore 853 492 pd randomize;
#X obj 952 361 vsl 20 100 1 100 0 1 empty rand_noise_panning empty
0 -9 0 10 -204786 -1 -1 7200 1;
#X msg 860 394 stop;
#X obj 844 585 s noise_panning_knob;
#X obj 529 460 r random_FM;
#X obj 220 305 r random_beat;
#X connect 0 0 1 0;
#X connect 1 0 9 0;
#X connect 1 0 32 0;
#X connect 2 0 1 1;
#X connect 3 0 4 0;
#X connect 4 0 2 0;
#X connect 7 0 29 0;
#X connect 8 0 2 0;
#X connect 9 0 33 0;
#X connect 10 0 1 0;
#X connect 11 0 25 0;
#X connect 12 0 11 0;
#X connect 12 0 14 0;
#X connect 12 0 0 0;
#X connect 12 0 38 0;
#X connect 12 0 41 0;
#X connect 14 0 15 0;
#X connect 17 0 11 0;
#X connect 18 0 14 0;
#X connect 19 0 12 0;
#X connect 20 0 21 0;
#X connect 20 0 19 0;
#X connect 21 0 19 1;
#X connect 22 0 19 0;
#X connect 23 0 13 0;
#X connect 24 0 5 0;
#X connect 25 0 28 0;
#X connect 26 0 23 0;
#X connect 28 0 26 0;
#X connect 28 0 27 0;
#X connect 29 0 31 0;
#X connect 30 0 24 0;
#X connect 31 0 30 0;
#X connect 32 0 7 0;
#X connect 33 0 2 0;
#X connect 34 0 33 1;
#X connect 35 0 7 1;
#X connect 35 0 32 1;
#X connect 36 0 11 1;
#X connect 37 0 14 1;
#X connect 38 0 16 0;
#X connect 39 0 38 1;
#X connect 40 0 38 0;
#X connect 41 0 44 0;
#X connect 42 0 41 1;
#X connect 43 0 41 0;
#X connect 45 0 23 1;
#X connect 46 0 24 1;
#X restore 664 121 pd variate;
#X obj 688 250 binauralsynth;
#X obj 656 58 cnv 15 197 36 empty empty BinauralSynth 24 15 0 18 -163127
-66577 0;
#N canvas 370 169 603 417 volume 0;
#X obj 121 161 / 127;
#X obj 121 188 pack 0 50;
#X obj 137 231 line;
#X obj 121 13 loadbang;
#X msg 121 59 100;
#X obj 347 105 r phasor_volume_knob;
#X obj 121 298 s phasor_volume;
#X connect 0 0 1 0;
#X connect 1 0 2 0;
#X connect 2 0 6 0;
#X connect 3 0 4 0;
#X connect 4 0 0 0;
#X connect 5 0 0 0;
#X coords 0 -1 1 1 140 40 1 100 100;
#X restore 667 527 pd volume phasor;
#N canvas 1009 134 603 417 volume 0;
#X obj 121 161 / 127;
#X obj 121 188 pack 0 50;
#X obj 137 231 line;
#X obj 121 13 loadbang;
#X msg 121 59 100;
#X obj 347 105 r square_volume_knob;
#X obj 121 298 s square_volume;
#X connect 0 0 1 0;
#X connect 1 0 2 0;
#X connect 2 0 6 0;
#X connect 3 0 4 0;
#X connect 4 0 0 0;
#X connect 5 0 0 0;
#X coords 0 -1 1 1 140 40 1 100 100;
#X restore 667 579 pd volume square;
#X obj 0 0 cnv 10 550 280 empty ViewPort empty 20 12 0 14 -128992 -262144
0;
#X obj -1 0 cnv 16 550 280 empty empty empty 20 12 0 14 -262065 -66577
0;
#X obj 59 70 vsl 20 100 0 440 0 1 Main_Frequency_knob yellow-vsl empty
0 -9 0 10 -262114 -1 -1 4750 1;
#X obj 204 71 vsl 20 100 0 64 0 1 Beat_Frequency_knob green-vsl empty
0 -9 0 10 -204786 -1 -1 200 1;
#X obj 187 41 nbx 5 20 -1e+37 1e+37 0 1 Beat_Frequency_final Beat_Frequency_knob
empty 0 -8 0 10 -204786 -1 -1 1.29293 256;
#X text 254 41 Hz;
#X text 106 42 Hz;
#X obj 37 42 nbx 5 20 -1e+37 1e+37 0 1 Main_Frequency Main_Frequency_knob
empty 0 -8 0 10 -262130 -1 -1 208.889 256;
#X text 14 14 Carrier Frequency;
#X text 166 14 Beat Frequency;
#X text 359 127 Sine Volume;
#X obj 347 146 hsl 100 20 0 100 0 1 sine_volume_knob empty empty -2
-8 0 10 -228856 -1 -1 6100 1;
#X obj 347 195 hsl 100 20 0 100 0 1 FM_volume_knob empty empty -2 -8
0 10 -228856 -1 -1 4200 1;
#X text 360 176 FM Volume;
#X obj 507 242 bng 30 250 50 0 \$0-nextview1 empty next 4 15 0 10 -245092
-1 -16645;
#X obj 460 151 nbx 4 20 -1e+37 1e+37 0 1 empty sine_volume_knob empty
0 -8 0 10 -167479 -1 -1 61.6162 256;
#X obj 460 200 nbx 4 20 -1e+37 1e+37 0 1 empty FM_volume_knob empty
0 -8 0 10 -167479 -1 -1 42.4242 256;
#X obj 347 87 hsl 100 20 0 110 0 1 master_volume_knob empty empty -2
-8 0 10 -228856 -1 -1 8200 1;
#X text 362 68 Main Volume;
#X obj 460 92 nbx 4 20 -1e+37 1e+37 0 1 empty master_volume_knob empty
0 -8 0 10 -167479 -1 -1 91.1111 256;
#X obj -1 280 cnv 16 550 280 empty empty empty 20 12 0 14 -262057 -66577
0;
#X obj 507 522 bng 30 250 50 0 \$0-nextview2 empty next 4 15 0 10 -245092
-1 -1;
#X obj 815 158 image garvalf.png 0;
#X obj -1 560 cnv 16 550 280 empty empty empty 20 12 0 14 -262057 -66577
0;
#X obj 70 715 bng 40 250 50 0 key-C empty C 17 20 0 14 -262144 -1 -1
;
#X obj 132 715 bng 40 250 50 0 key-D empty D 17 20 0 14 -262144 -1
-1;
#X obj 165 596 bng 40 250 50 0 key-octave-1 empty oct-1 3 20 0 12 -262130
-1 -1;
#X obj 236 596 bng 40 250 50 0 key-octave-2 empty oct-2 3 20 0 12 -262130
-1 -1;
#X obj 307 596 bng 40 250 50 0 key-octave-3 empty oct-3 3 20 0 12 -262130
-1 -1;
#X obj 193 715 bng 40 250 50 0 key-E empty E 17 20 0 14 -262144 -1
-1;
#X obj 101 660 bng 40 250 50 0 key-Cs empty C^ 15 20 0 14 -191407 -1
-1;
#X obj 163 660 bng 40 250 50 0 key-Ds empty D^ 15 20 0 14 -191407 -1
-1;
#X obj 252 715 bng 40 250 50 0 key-F empty F 17 20 0 14 -262144 -1
-1;
#X obj 312 715 bng 40 250 50 0 key-G empty G 17 20 0 14 -262144 -1
-1;
#X obj 371 715 bng 40 250 50 0 key-A empty A 17 20 0 14 -262144 -1
-1;
#X obj 283 660 bng 40 250 50 0 key-Fs empty F^ 15 20 0 14 -191407 -1
-1;
#X obj 345 660 bng 40 250 50 0 key-Gs empty G^ 15 20 0 14 -191407 -1
-1;
#X obj 429 715 bng 40 250 50 0 key-B empty B 17 20 0 14 -262144 -1
-1;
#X obj 403 660 bng 40 250 50 0 key-As empty A^ 15 20 0 14 -191407 -1
-1;
#X obj 92 596 bng 40 250 50 0 key-octave-0 empty oct-0 3 20 0 12 -262130
-1 -1;
#X obj 472 522 bng 30 250 50 0 \$0-nextview0 empty prev 4 15 0 10 -245092
-1 -1;
#X obj 25 347 hsl 100 20 0 100 0 1 phasor_volume_knob empty empty -2
-8 0 10 -228856 -1 -1 2400 1;
#X obj 139 347 nbx 4 20 -1e+37 1e+37 0 0 empty phasor_volume_knob empty
0 -8 0 10 -167479 -1 -1 24.2424 256;
#X obj 25 407 hsl 100 20 0 100 0 1 square_volume_knob empty empty -2
-8 0 10 -228856 -1 -1 2500 1;
#X obj 139 407 nbx 4 20 -1e+37 1e+37 0 0 empty square_volume_knob empty
0 -8 0 10 -167479 -1 -1 25.2525 256;
#X text 39 320 Phasor Volume;
#X text 39 380 Square Volume;
#X obj 24 466 hsl 50 20 1 50 0 1 square_pwm_knob empty empty -2 -8
0 10 -228856 -1 -1 500 1;
#X obj 85 466 nbx 4 20 1 99 0 1 empty square_pwm empty 0 -8 0 10 -167479
-1 -1 40.1575 256;
#X text 38 439 Square PWM;
#X obj 507 802 bng 30 250 50 0 \$0-nextview3 empty next 4 15 0 10 -245092
-1 -1;
#X obj -1 841 cnv 16 550 280 empty empty empty 20 12 0 14 -262057 -66577
0;
#X text 267 854 Presets;
#X obj 472 802 bng 30 250 50 0 \$0-nextview1 empty prev 4 15 0 10 -245092
-1 -1;
#X obj 180 522 bng 30 250 50 0 \$0-nextview3 empty presets 36 15 0
10 -245092 -1 -1;
#X obj 507 1082 bng 30 250 50 0 \$0-nextview4 empty next 4 15 0 10
-245092 -1 -1;
#X obj 472 1082 bng 30 250 50 0 \$0-nextview2 empty prev 4 15 0 10
-245092 -1 -1;
#X text 272 910 Delta Waves (0 Hz to 3.5 Hz);
#X obj 244 904 bng 20 250 50 0 preset_delta empty empty 17 7 0 10 -62052
-1 -1;
#X text 271 959 Alpha Waves (8 Hz to 12 Hz);
#X text 272 934 Theta Waves (3.5 Hz to 8 Hz);
#X text 271 984 Beta Waves (12 Hz to 30 Hz);
#X text 271 1009 Gamma Waves (30 Hz to 100 Hz);
#X obj 244 929 bng 20 250 50 0 preset_theta empty empty 17 7 0 10 -38628
-1 -1;
#X obj 244 954 bng 20 250 50 0 preset_alpha empty empty 17 7 0 10 -39125
-1 -1;
#X obj 244 979 bng 20 250 50 0 preset_beta empty empty 17 7 0 10 -215300
-1 -1;
#X obj 244 1004 bng 20 250 50 0 preset_gamma empty empty 17 7 0 10
-189125 -1 -1;
#X obj 49 892 bng 30 250 50 0 preset_lucid_dreaming empty LucidDreaming
35 10 0 10 -62052 -1 -1;
#X obj 48 941 bng 30 250 50 0 preset_astral_projection empty AstralProjection
35 10 0 10 -38628 -1 -1;
#X obj 49 991 bng 30 250 50 0 preset_energy empty Energy 35 10 0 10
-39125 -1 -1;
#X obj 55 522 bng 30 250 50 0 \$0-nextview2 empty keyboard 36 15 0
10 -245092 -1 -1;
#X obj 180 802 bng 30 250 50 0 \$0-nextview3 empty presets 36 15 0
10 -245092 -1 -1;
#X obj 55 802 bng 30 250 50 0 \$0-nextview2 empty keyboard 36 15 0
10 -245092 -1 -1;
#X obj 180 1080 bng 30 250 50 0 \$0-nextview3 empty presets 36 15 0
10 -245092 -1 -1;
#X obj 55 1080 bng 30 250 50 0 \$0-nextview2 empty keyboard 36 15 0
10 -245092 -1 -1;
#X obj 376 596 bng 40 250 50 0 key-octave-4 empty oct-4 3 20 0 12 -262130
-1 -1;
#N canvas 1316 426 509 502 Visu 0;
#X obj 54 14 r~ toPlot;
#N canvas 0 50 450 250 (subpatch) 0;
#X array signal 1000 float 0;
#X coords 0 1 999 -1 200 140 1;
#X restore 98 92 graph;
#X obj 60 279 tabwrite~ signal;
#X obj 306 80 tgl 15 0 empty empty ON 2 8 0 10 -262144 -1 -1 0 1;
#X obj 336 242 metro 100;
#X obj 307 110 vu 10 120 empty empty -1 -8 0 10 -66577 -1 0 0;
#X obj 269 30 env~;
#X obj 333 58 - 102;
#X obj 320 388 s~ toPlot;
#X obj 300 350 r~ OUT_left;
#X connect 0 0 2 0;
#X connect 0 0 6 0;
#X connect 3 0 4 0;
#X connect 4 0 2 0;
#X connect 6 0 7 0;
#X connect 7 0 5 0;
#X connect 9 0 8 0;
#X coords 0 -1 1 1 250 180 1 82 64;
#X restore 622 664 pd Visu;
#X obj 209 351 vsl 20 100 0 150 0 1 phase_cutoff_knob phase_cutoff_knob
empty 0 -9 0 10 -179199 -1 -1 5214 1;
#X obj 280 351 vsl 20 100 0 120 0 1 phase_resonance_knob empty empty
0 -9 0 10 -179199 -1 -1 5600 1;
#X obj 267 316 nbx 4 20 -1e+37 1e+37 0 0 phase_resonance phase_resonance_knob
empty 0 -8 0 10 -167479 -1 -1 94.8788 256;
#X obj 196 316 nbx 4 20 -1e+37 1e+37 0 0 phase_cutoff phase_cutoff_knob
empty 0 -8 0 10 -167479 -1 -1 70 256;
#X text 253 462 resonance;
#X text 192 462 cut off;
#X text 223 290 Phase + Sq;
#X obj 334 281 cnv 15 215 220 empty empty empty 24 15 0 18 -215543
-66577 0;
#X obj 359 350 vsl 20 100 0 140 0 1 noise_cutoff_knob empty empty 0
-9 0 10 -261234 -1 -1 3850 1;
#X obj 430 350 vsl 20 100 0 120 0 1 noise_resonance_knob empty empty
0 -9 0 10 -261234 -1 -1 7500 1;
#X obj 417 315 nbx 4 20 -1e+37 1e+37 0 0 noise_resonance noise_resonance_knob
empty 0 -8 0 10 -167479 -1 -1 90.9091 256;
#X obj 485 315 nbx 4 20 -1e+37 1e+37 0 0 noise_panning noise_panning_knob
empty 0 -8 0 10 -167479 -1 -1 52.1212 256;
#X obj 346 315 nbx 4 20 -1e+37 1e+37 0 0 noise_cutoff noise_cutoff_knob
empty 0 -8 0 10 -167479 -1 -1 53.7374 256;
#X obj 500 350 vsl 20 100 0 120 0 1 noise_panning_knob empty empty
0 -9 0 10 -261234 -1 -1 4350 1;
#X text 415 289 Noise;
#X text 403 461 resonance;
#X text 342 461 cut off;
#X text 486 461 pan fx;
#X obj 274 489 cnv 15 179 67 empty empty empty 24 15 0 18 -215543 -66577
0;
#X obj 283 529 hsl 100 20 0 60 0 0 noise_volume_knob empty empty -2
-8 0 10 -228856 -1 -1 8100 1;
#X text 297 502 Noise Volume;
#X obj 397 529 nbx 4 20 -1e+37 1e+37 0 0 empty noise_volume_knob empty
0 -8 0 10 -167479 -1 -1 49.0909 256;
#N canvas 987 136 746 561 randommelody 0;
#X obj 113 28 bng 15 250 50 0 empty empty empty 17 7 0 10 -262144 -1
-1;
#X obj 150 73 metro 100;
#X obj 150 102 bng 15 250 50 0 empty empty empty 17 7 0 10 -262144
-1 -1;
#X floatatom 142 179 5 0 0 0 - - -, f 5;
#X obj 152 301 osc~;
#X obj 157 440 dac~;
#X obj 181 40 tgl 15 0 empty empty empty 17 7 0 10 -262144 -1 -1 0
1;
#X obj 203 332 tgl 15 0 empty empty empty 17 7 0 10 -262144 -1 -1 0
1;
#X obj 152 365 *~;
#X obj 137 269 line;
#X obj 150 126 random 1000;
#X floatatom 240 253 5 0 0 0 - - -, f 5;
#X msg 136 217 \$1 700;
#X connect 0 0 1 0;
#X connect 1 0 2 0;
#X connect 2 0 10 0;
#X connect 3 0 12 0;
#X connect 4 0 8 0;
#X connect 6 0 1 0;
#X connect 7 0 8 1;
#X connect 8 0 5 0;
#X connect 8 0 5 1;
#X connect 9 0 4 0;
#X connect 10 0 3 0;
#X connect 12 0 9 0;
#X connect 12 0 11 0;
#X restore 825 286 pd randommelody;
#X obj -1 1122 cnv 16 550 280 empty empty empty 20 12 0 14 -262057
-66577 0;
#X obj 507 1362 bng 30 250 50 0 \$0-nextview0 empty next 4 15 0 10
-245092 -1 -1;
#X obj 472 1362 bng 30 250 50 0 \$0-nextview3 empty prev 4 15 0 10
-245092 -1 -1;
#X obj 180 1361 bng 30 250 50 0 \$0-nextview3 empty presets 36 15 0
10 -245092 -1 -1;
#X obj 55 1361 bng 30 250 50 0 \$0-nextview2 empty keyboard 36 15 0
10 -245092 -1 -1;
#X text 267 1135 Random;
#X obj 93 1190 vsl 20 100 1 30 0 1 rand_fm_freq empty empty 0 -9 0
10 -88489 -1 -1 1100 1;
#X obj 93 1160 tgl 24 0 random_FM empty empty 17 7 0 10 -262144 -1
-1 0 1;
#X obj 189 1190 vsl 20 100 1 20 0 1 rand_beat_freq empty empty 0 -9
0 10 -204786 -1 -1 900 1;
#X obj -1 188 cnv 15 334 93 empty empty empty 24 15 0 18 -162999 -66577
0;
#X text 25 201 FM mod freq:;
#X text 18 232 FM mod depth:;
#X obj 246 239 nbx 5 20 -1e+37 1e+37 0 1 FM_mod_depth FM_mod_depth_knob
empty 0 -8 0 10 -262144 -1 -1 1010 256;
#X obj 125 234 hsl 100 20 0 120 0 1 FM_mod_depth_knob empty empty -2
-8 0 10 -228856 -1 -1 0 1;
#X obj 246 203 nbx 5 20 -1e+37 1e+37 0 1 FM_Freq FM_Freq_knob empty
0 -8 0 10 -262144 -1 -1 485 256;
#X obj 125 198 hsl 100 20 0 300 0 1 FM_Freq_knob empty empty -2 -8
0 10 -228856 -1 -1 0 1;
#X obj 472 242 bng 30 250 50 0 \$0-nextview4 empty prev 4 15 0 10 -245092
-99800 -1;
#X obj 352 0 cnv 15 197 36 empty empty empty 24 15 0 18 -163127 -66577
0;
#X text 376 15 :: Binaural Synth ::;
#X obj 304 1190 vsl 20 100 1 100 0 1 rand_noise_cutoff empty empty
0 -9 0 10 -178037 -1 -1 7300 1;
#X text 274 1302 Noise Cutoff;
#X text 159 1302 Beat Freq;
#X text 75 1302 FM Freq;
#X obj 385 1190 vsl 20 100 1 100 0 1 rand_noise_resonance empty empty
0 -9 0 10 -178037 -1 -1 8400 1;
#X obj 468 1190 vsl 20 100 1 100 0 1 rand_noise_panning empty empty
0 -9 0 10 -178037 -1 -1 7250 1;
#X text 466 1302 panning;
#X text 364 1302 Noise Reson.;
#X obj 187 1159 tgl 24 0 random_beat empty empty 17 7 0 10 -262144
-1 -1 0 1;
#X obj 383 1159 tgl 24 0 random_noise empty empty 17 7 0 10 -262144
-1 -1 0 1;
#X obj 352 43 cnv 15 197 8 empty empty empty 24 15 0 18 -163127 -66577
0;
#X obj 333 0 cnv 15 13 52 empty empty empty 24 15 0 18 -163127 -66577
0;
#N canvas 1920 121 1277 827 sequence2 0;
#X obj 208 623 qlist;
#X msg 630 372 tempo \$1 \, rewind \, bang;
#X floatatom 550 318 5 0.25 5 0 - - -, f 5;
#X msg 717 189 1;
#X msg 718 233 2;
#X msg 653 188 0.75;
#X msg 602 189 0.4;
#X obj 59 617 qlist;
#X obj 332 626 qlist;
#X msg 507 189 0.1;
#X msg 550 189 0.2;
#X floatatom 346 183 5 0 200 0 - - -, f 5;
#X floatatom 346 247 5 0 0 0 - - -, f 5;
#X obj 346 218 / 100;
#X obj 364 567 r read_seq_info;
#X obj 630 421 s read_seq_info;
#X floatatom 740 561 5 0 200 0 - - -, f 5;
#X floatatom 740 622 5 0 0 0 - - -, f 5;
#X obj 740 593 / 100;
#X msg 740 527 50;
#X msg 685 662 tempo \$1 \, rewind \, bang;
#X msg 607 535 read seq05.txt;
#X obj 275 723 print;
#X msg 346 152 100;
#X msg 83 530 read seq01.txt;
#X msg 202 531 read seq02.txt;
#X obj 532 678 qlist;
#X msg 538 599 read seq03.txt;
#X msg 340 531 read seq04.txt;
#X obj 114 152 delay 150;
#X obj 258 327 delay 170;
#X obj 249 94 delay 180;
#X obj 636 569 qlist;
#X obj 408 335 delay 160;
#X text 435 122 load sequences for altering volumes and filters;
#X obj 939 248 s engine02_volume;
#X msg 887 139 0;
#X obj 934 179 s noise_volume_knob;
#X obj 938 216 s sine_volume_knob;
#X obj 989 76 s FM_volume_knob;
#X obj 1057 141 s phasor_volume_knob;
#X obj 1040 103 s square_volume_knob;
#X obj 841 75 delay 100;
#X obj 138 55 x-loadbang;
#X connect 1 0 15 0;
#X connect 2 0 1 0;
#X connect 3 0 2 0;
#X connect 4 0 2 0;
#X connect 5 0 2 0;
#X connect 6 0 2 0;
#X connect 9 0 2 0;
#X connect 10 0 2 0;
#X connect 11 0 13 0;
#X connect 12 0 2 0;
#X connect 13 0 12 0;
#X connect 14 0 0 0;
#X connect 14 0 7 0;
#X connect 14 0 8 0;
#X connect 14 0 32 0;
#X connect 14 0 26 0;
#X connect 16 0 18 0;
#X connect 17 0 20 0;
#X connect 18 0 17 0;
#X connect 19 0 16 0;
#X connect 21 0 32 0;
#X connect 23 0 11 0;
#X connect 24 0 7 0;
#X connect 24 0 22 0;
#X connect 25 0 0 0;
#X connect 27 0 26 0;
#X connect 28 0 8 0;
#X connect 29 0 24 0;
#X connect 29 0 25 0;
#X connect 30 0 28 0;
#X connect 30 0 21 0;
#X connect 31 0 23 0;
#X connect 33 0 27 0;
#X connect 36 0 35 0;
#X connect 36 0 39 0;
#X connect 36 0 41 0;
#X connect 36 0 40 0;
#X connect 36 0 37 0;
#X connect 36 0 38 0;
#X connect 42 0 36 0;
#X connect 43 0 29 0;
#X connect 43 0 31 0;
#X connect 43 0 30 0;
#X connect 43 0 33 0;
#X connect 43 0 42 0;
#X restore 764 209 pd sequence2;
#N canvas 74 138 1846 876 sequence3 0;
#X obj 90 51 bng 15 250 50 0 empty empty empty 17 7 0 10 -262144 -1
-1;
#X msg 45 140 mfk 73.42;
#X obj 304 44 bng 15 250 50 0 empty empty empty 17 7 0 10 -262144 -1
-1;
#X obj 371 292 print;
#X obj 436 285 send;
#X floatatom 321 213 5 0 0 0 - - -, f 5;
#X obj 336 125 metro;
#X obj 418 71 + 1;
#X floatatom 422 148 5 0 0 0 - - -, f 5;
#X obj 605 1117 s phase_cutoff_knob;
#X obj 110 1073 s phase_resonance_knob;
#X msg 173 608 bang;
#X obj 162 680 metro;
#X floatatom 241 677 5 0 0 0 - - -, f 5;
#X msg 290 628 500;
#X obj 110 765 + 2;
#X msg 360 641 200;
#X obj 242 733 random 400;
#X msg 225 586 stop;
#N canvas 54 372 450 461 randomize 0;
#X obj 85 18 inlet;
#X obj 94 210 outlet;
#X obj 179 58 metro;
#X floatatom 258 55 5 0 0 0 - - -, f 5;
#X obj 356 76 + 300;
#X obj 127 143 + 12;
#X obj 73 97 random 4;
#X obj 259 111 random 1500;
#X obj 246 175 inlet;
#X connect 0 0 2 0;
#X connect 2 0 6 0;
#X connect 2 0 7 0;
#X connect 3 0 2 1;
#X connect 4 0 3 0;
#X connect 5 0 1 0;
#X connect 6 0 5 0;
#X connect 7 0 4 0;
#X connect 8 0 5 1;
#X restore 441 942 pd randomize;
#X msg 433 770 bang;
#N canvas 32 247 450 369 randomize 0;
#X obj 85 18 inlet;
#X obj 179 58 metro;
#X floatatom 258 55 5 0 0 0 - - -, f 5;
#X obj 356 76 + 300;
#X obj 73 97 random 12;
#X obj 222 172 inlet;
#X obj 118 444 outlet;
#X floatatom 163 232 5 0 0 0 - - -, f 5;
#X obj 158 322 line;
#X floatatom 260 299 5 0 0 0 - - -, f 5;
#X msg 157 270 \$1 700;
#X obj 224 410 spigot;
#X obj 127 143 + 45;
#X obj 259 111 random 1400;
#X obj 264 378 r random_noise;
#X connect 0 0 1 0;
#X connect 1 0 4 0;
#X connect 1 0 13 0;
#X connect 2 0 1 1;
#X connect 3 0 2 0;
#X connect 4 0 12 0;
#X connect 5 0 12 1;
#X connect 7 0 10 0;
#X connect 8 0 11 0;
#X connect 10 0 8 0;
#X connect 10 0 9 0;
#X connect 11 0 6 0;
#X connect 12 0 7 0;
#X connect 13 0 3 0;
#X connect 14 0 11 1;
#X restore 523 836 pd randomize;
#X obj 669 1009 s noise_cutoff_knob;
#X msg 397 903 stop;
#X msg 609 797 stop;
#X obj 533 660 metro;
#X msg 616 629 500;
#X obj 530 590 bng 15 250 50 0 empty empty empty 17 7 0 10 -262144
-1 -1;
#X obj 456 1090 spigot;
#X obj 172 933 spigot;
#X floatatom 376 975 5 0 0 0 - - -, f 5;
#X obj 371 1065 line;
#X floatatom 473 1042 5 0 0 0 - - -, f 5;
#X msg 370 1013 \$1 700;
#X floatatom 81 799 5 0 0 0 - - -, f 5;
#X obj 76 889 line;
#X msg 75 837 \$1 700;
#X obj 56 719 random 10;
#X obj 327 694 + 400;
#X obj 411 633 vsl 20 100 100 800 0 1 empty empty empty 0 -9 0 10 -204786
-1 -1 7000 1;
#X obj 171 737 vsl 20 100 1 95 0 1 empty rand_beat_freq empty 0 -9
0 10 -204786 -1 -1 182 1;
#X obj 553 906 vsl 20 100 1 150 0 1 empty empty empty 0 -9 0 10 -204786
-1 -1 8100 1;
#X obj 665 724 vsl 20 100 1 100 0 1 empty rand_noise_cutoff empty 0
-9 0 10 -204786 -1 -1 7300 1;
#X floatatom 226 866 5 0 0 0 - - -, f 5;
#X obj 936 428 s Frequency01;
#X obj 905 34 bng 15 250 50 0 empty empty empty 17 7 0 10 -262144 -1
-1;
#X obj 967 197 metro;
#X obj 1036 145 + 1;
#X floatatom 1040 222 5 0 0 0 - - -, f 5;
#X obj 1070 93 random 4;
#X obj 452 19 random 4;
#N canvas 403 130 549 409 randlist2 0;
#X obj 17 102 random;
#X obj 19 40 inlet;
#X obj 16 75 t b;
#X obj 19 256 outlet;
#X obj 162 20 inlet;
#X msg 287 105 clear;
#X obj 167 54 t a a b;
#X obj 186 108 list length;
#X obj 17 128 t b f;
#X msg 17 148 0;
#X text 39 294 https://forum.pdpatchrepo.info/topic/10903/pick-random-elements-from-a-list/3
;
#X obj 55 72 r \$0-range-2;
#X obj 186 128 s \$0-range-2;
#X obj 287 125 text define \$0-list-2;
#X obj 166 176 text set \$0-list-2 0;
#X obj 16 195 text get \$0-list-2;
#X connect 0 0 8 0;
#X connect 1 0 2 0;
#X connect 2 0 0 0;
#X connect 4 0 6 0;
#X connect 5 0 13 0;
#X connect 6 0 14 0;
#X connect 6 1 5 0;
#X connect 6 1 7 0;
#X connect 7 0 12 0;
#X connect 8 0 9 0;
#X connect 8 1 15 1;
#X connect 9 0 15 0;
#X connect 11 0 0 1;
#X connect 15 0 3 0;
#X restore 1026 291 pd randlist2;
#X msg 984 22 stop;
#X msg 598 37 stop;
#X obj 1108 633 line~;
#X obj 1013 676 *~;
#X obj 981 832 dac~;
#X msg 1108 609 1 \, 0 50;
#X obj 988 638 osc~;
#X obj 988 600 line~;
#X text 1097 827 kick;
#X text 1138 710 http://impala.utopia.free.fr/pd/patchs/doc_tut_workshop/Fr_Workshop_giair/2.synthese/fotils_pddrums/pddrums.html
;
#X obj 1474 383 noise~;
#X obj 1565 386 line~;
#X obj 1474 449 *~;
#X obj 1465 599 dac~;
#X obj 1278 598 hsl 128 15 0 1 0 0 empty drum_volume Volume_0-1 -2
-6 0 8 -262144 -1 -1 0 1;
#X obj 1474 473 lop~ 400;
#X floatatom 1601 444 5 0 0 0 - - -, f 5;
#X obj 1556 409 *~;
#X obj 1537 440 *~;
#X msg 1565 358 1 \, 0 95;
#X text 1618 503 snare;
#X obj 1213 346 metro;
#X floatatom 1454 170 5 0 0 0 - - -, f 5;
#X obj 1550 310 bng 15 250 50 0 empty empty empty 0 -6 0 8 -241291
-1 -1;
#X obj 1024 481 bng 15 250 50 0 empty empty empty 0 -6 0 8 -241291
-1 -1;
#X msg 1037 602 0.85;
#X obj 1530 246 metro;
#X msg 1447 136 1200;
#X floatatom 1607 184 5 0 0 0 - - -, f 5;
#X obj 440 102 * 400;
#X obj 1058 176 * 200;
#X msg 273 821 1;
#X obj 999 759 *~;
#X obj 1473 572 *~;
#X msg 1605 137 3000;
#X obj 186 86 s random_noise;
#X obj 211 158 s random_FM;
#X msg 151 49 1;
#X obj 151 198 delay 8000;
#X obj 218 268 s drum_volume;
#X obj 28 341 s engine02_volume;
#X msg 74 281 0.15;
#X obj 949 685 *~;
#X obj 924 647 osc~;
#X obj 929 762 *~;
#X msg 934 586 1.1;
#X obj 879 551 line~;
#X msg 878 528 218 \, 50 20;
#X msg 988 577 228 \, 50 20;
#X msg 172 248 0.8;
#X obj 1564 645 * 1.9;
#X obj 75 243 delay 4000;
#X obj 21 448 s phasor_volume_knob;
#X msg 22 408 20;
#X floatatom 928 301 5 0 0 0 - - -, f 5;
#X floatatom 896 380 5 0 0 0 - - -, f 5;
#X floatatom 952 334 5 1 2 0 - - -, f 5;
#X obj 910 350 * 2;
#X msg 522 164 list key-D key-F key-G key-As key-D key-octave-0 key-octave-1
;
#X msg 1135 229 58.01 148.5 148.5 165 198 232.03 297;
#X obj 483 303 s Main_Frequency_knob;
#N canvas 379 365 549 409 randlist 0;
#X obj 17 102 random;
#X obj 55 72 r \$0-range;
#X obj 19 40 inlet;
#X obj 16 75 t b;
#X obj 19 256 outlet;
#X obj 162 20 inlet;
#X obj 287 125 text define \$0-list;
#X msg 287 105 clear;
#X obj 166 176 text set \$0-list 0;
#X obj 167 54 t a a b;
#X obj 186 108 list length;
#X obj 186 128 s \$0-range;
#X obj 16 195 text get \$0-list;
#X obj 17 128 t b f;
#X msg 17 148 0;
#X text 39 294 https://forum.pdpatchrepo.info/topic/10903/pick-random-elements-from-a-list/3
;
#X connect 0 0 13 0;
#X connect 1 0 0 1;
#X connect 2 0 3 0;
#X connect 3 0 0 0;
#X connect 5 0 9 0;
#X connect 7 0 6 0;
#X connect 9 0 8 0;
#X connect 9 1 7 0;
#X connect 9 1 10 0;
#X connect 10 0 11 0;
#X connect 12 0 4 0;
#X connect 13 0 14 0;
#X connect 13 1 12 1;
#X connect 14 0 12 0;
#X restore 495 252 pd randlist;
#X msg 399 215 pd randlist sample;
#X text 721 114 <- put your sequence there;
#X obj 1713 39 bng 15 250 50 0 empty empty empty 17 7 0 10 -262144
-1 -1;
#X obj 1775 202 metro;
#X obj 1844 150 + 1;
#X floatatom 1848 227 5 0 0 0 - - -, f 5;
#X msg 1792 27 stop;
#X floatatom 1736 306 5 0 0 0 - - -, f 5;
#X floatatom 1704 385 5 0 0 0 - - -, f 5;
#X floatatom 1760 339 5 1 4 0 - - -, f 5;
#X obj 1744 433 s Frequency03;
#N canvas 26 483 549 409 randlist3 0;
#X obj 17 102 random;
#X obj 19 40 inlet;
#X obj 16 75 t b;
#X obj 19 256 outlet;
#X obj 162 20 inlet;
#X msg 287 105 clear;
#X obj 167 54 t a a b;
#X obj 186 108 list length;
#X obj 17 128 t b f;
#X msg 17 148 0;
#X text 39 294 https://forum.pdpatchrepo.info/topic/10903/pick-random-elements-from-a-list/3
;
#X obj 16 195 text get \$0-list-3;
#X obj 166 176 text set \$0-list-3 0;
#X obj 287 131 text define \$0-list-3;
#X obj 55 72 r \$0-range-3;
#X obj 186 135 s \$0-range-3;
#X connect 0 0 8 0;
#X connect 1 0 2 0;
#X connect 2 0 0 0;
#X connect 4 0 6 0;
#X connect 5 0 13 0;
#X connect 6 0 12 0;
#X connect 6 1 5 0;
#X connect 6 1 7 0;
#X connect 7 0 15 0;
#X connect 8 0 9 0;
#X connect 8 1 11 1;
#X connect 9 0 11 0;
#X connect 11 0 3 0;
#X connect 14 0 0 1;
#X restore 1834 296 pd randlist3;
#X obj 1878 98 random 4;
#X obj 1866 181 * 800;
#X msg 499 114 44 44 51.56 58.01 74.25 99;
#X msg 1282 74 44 58.01 74.25 88 88 116.02 148.5;
#X obj 223 336 delay 8000;
#X obj 236 425 s bell_volume;
#X text 1525 75 <- put your sequence there;
#X obj 1718 355 * 4;
#X obj 360 444 s bell_volume;
#X obj 342 370 delay 1000;
#X msg 358 399 0.3;
#X msg 235 380 0.12;
#X obj 265 14 x-loadbang;
#X obj 285 582 x-loadbang;
#X obj 611 583 x-loadbang;
#X connect 0 0 1 0;
#X connect 2 0 128 0;
#X connect 2 0 6 0;
#X connect 2 0 45 0;
#X connect 2 0 79 0;
#X connect 2 0 86 0;
#X connect 2 0 116 0;
#X connect 2 0 129 0;
#X connect 5 0 4 0;
#X connect 6 0 50 0;
#X connect 6 0 113 0;
#X connect 7 0 81 0;
#X connect 8 0 6 1;
#X connect 11 0 12 0;
#X connect 12 0 17 0;
#X connect 12 0 37 0;
#X connect 12 0 83 0;
#X connect 13 0 12 1;
#X connect 14 0 13 0;
#X connect 15 0 34 0;
#X connect 16 0 13 0;
#X connect 17 0 38 0;
#X connect 18 0 12 0;
#X connect 19 0 30 0;
#X connect 20 0 19 0;
#X connect 20 0 21 0;
#X connect 20 0 11 0;
#X connect 21 0 22 0;
#X connect 23 0 19 0;
#X connect 24 0 21 0;
#X connect 25 0 20 0;
#X connect 26 0 25 1;
#X connect 27 0 25 0;
#X connect 28 0 9 0;
#X connect 29 0 10 0;
#X connect 30 0 33 0;
#X connect 31 0 28 0;
#X connect 33 0 31 0;
#X connect 33 0 32 0;
#X connect 34 0 36 0;
#X connect 35 0 29 0;
#X connect 36 0 35 0;
#X connect 37 0 15 0;
#X connect 38 0 13 0;
#X connect 39 0 38 1;
#X connect 40 0 15 1;
#X connect 40 0 37 1;
#X connect 41 0 19 1;
#X connect 42 0 21 1;
#X connect 43 0 29 1;
#X connect 43 0 28 1;
#X connect 45 0 46 0;
#X connect 45 0 73 0;
#X connect 45 0 78 0;
#X connect 46 0 51 0;
#X connect 46 0 49 0;
#X connect 47 0 82 0;
#X connect 48 0 46 1;
#X connect 49 0 47 0;
#X connect 50 0 7 0;
#X connect 51 0 106 0;
#X connect 52 0 46 0;
#X connect 53 0 6 0;
#X connect 54 0 55 1;
#X connect 54 0 94 1;
#X connect 55 0 84 0;
#X connect 57 0 54 0;
#X connect 58 0 55 0;
#X connect 59 0 58 0;
#X connect 62 0 64 0;
#X connect 63 0 69 0;
#X connect 63 0 69 1;
#X connect 64 0 67 0;
#X connect 66 0 84 1;
#X connect 66 0 96 1;
#X connect 66 0 102 0;
#X connect 67 0 85 0;
#X connect 68 0 67 1;
#X connect 69 0 70 0;
#X connect 69 0 70 1;
#X connect 70 0 64 1;
#X connect 71 0 63 0;
#X connect 73 0 76 0;
#X connect 74 0 73 1;
#X connect 75 0 71 0;
#X connect 76 0 57 0;
#X connect 76 0 100 0;
#X connect 76 0 77 0;
#X connect 76 0 97 0;
#X connect 76 0 99 0;
#X connect 77 0 58 1;
#X connect 78 0 75 0;
#X connect 79 0 74 0;
#X connect 80 0 78 1;
#X connect 81 0 8 0;
#X connect 82 0 48 0;
#X connect 83 0 43 0;
#X connect 84 0 56 1;
#X connect 85 0 65 0;
#X connect 85 0 65 1;
#X connect 86 0 80 0;
#X connect 89 0 87 0;
#X connect 89 0 88 0;
#X connect 90 0 101 0;
#X connect 90 0 103 0;
#X connect 93 0 92 0;
#X connect 94 0 96 0;
#X connect 95 0 94 0;
#X connect 96 0 56 0;
#X connect 97 0 95 1;
#X connect 98 0 95 0;
#X connect 99 0 98 0;
#X connect 100 0 59 0;
#X connect 101 0 91 0;
#X connect 102 0 85 1;
#X connect 103 0 93 0;
#X connect 103 0 130 0;
#X connect 105 0 104 0;
#X connect 106 0 109 0;
#X connect 107 0 44 0;
#X connect 108 0 109 1;
#X connect 109 0 107 0;
#X connect 113 0 112 0;
#X connect 114 0 4 0;
#X connect 114 0 4 1;
#X connect 116 0 117 0;
#X connect 117 0 125 0;
#X connect 117 0 126 0;
#X connect 118 0 127 0;
#X connect 119 0 117 1;
#X connect 120 0 117 0;
#X connect 121 0 133 0;
#X connect 122 0 124 0;
#X connect 123 0 133 1;
#X connect 125 0 121 0;
#X connect 126 0 118 0;
#X connect 127 0 119 0;
#X connect 128 0 51 1;
#X connect 128 0 113 1;
#X connect 129 0 125 1;
#X connect 130 0 137 0;
#X connect 130 0 135 0;
#X connect 133 0 122 0;
#X connect 135 0 136 0;
#X connect 136 0 134 0;
#X connect 137 0 131 0;
#X connect 138 0 2 0;
#X connect 138 0 89 0;
#X connect 138 0 90 0;
#X connect 139 0 14 0;
#X connect 140 0 26 0;
#X connect 140 0 25 0;
#X restore 869 210 pd sequence3;
#N canvas 1988 284 1197 780 engine_02 0;
#X obj 548 90 s Frequency01;
#X floatatom 562 35 5 0 0 0 - - -, f 5;
#N canvas 415 127 450 323 square~ 0;
#X obj 111 45 phasor~;
#X obj 94 6 inlet;
#X obj 124 157 outlet~;
#X obj 127 100 expr~ $v1 > $v2;
#X obj 225 54 r square_pwm;
#X obj 229 76 / 100;
#X connect 0 0 3 0;
#X connect 1 0 0 0;
#X connect 3 0 2 0;
#X connect 4 0 5 0;
#X connect 5 0 3 1;
#X restore 488 192 pd square~;
#X obj 551 129 r Frequency01;
#X obj 474 455 *~, f 8;
#N canvas 827 106 450 323 square~ 0;
#X obj 111 45 phasor~;
#X obj 94 6 inlet;
#X obj 124 157 outlet~;
#X obj 127 100 expr~ $v1 > $v2;
#X obj 225 54 r square_pwm;
#X obj 229 76 / 100;
#X connect 0 0 3 0;
#X connect 1 0 0 0;
#X connect 3 0 2 0;
#X connect 4 0 5 0;
#X connect 5 0 3 1;
#X restore 27 352 pd square~;
#X obj 75 385 r sine_volume;
#X obj 34 441 *~;
#X obj 698 253 osc~ 120;
#X obj 20 289 osc~ 120;
#N canvas 399 117 877 871 output 0;
#X obj 353 490 t b;
#X obj 353 437 f;
#X obj 353 515 f;
#X msg 467 514 0;
#X obj 353 467 moses 1;
#X obj 467 486 t b f;
#X obj 433 447 moses 1;
#X obj 29 97 dbtorms;
#X obj 85 170 inlet~;
#X msg 287 315 \; pd dsp 1;
#X obj 29 170 line~;
#X obj 64 242 *~;
#X obj 64 272 dac~;
#X obj 29 127 pack 0 50;
#X text 209 141 audio in;
#X text 138 464 test if less than 1 -->;
#X text 104 491 if true convert to bang -->;
#X text 183 99 <-- convert from dB to linear units;
#X floatatom 323 219 3 0 100 0 dB - -, f 3;
#X obj 350 240 bng 15 250 50 0 empty empty mute -38 7 0 12 -262144
-1 -1;
#X text 191 125 <-- make a ramp to avoid clicks or zipper noise;
#X obj 148 170 inlet~;
#X obj 154 241 *~;
#X text 373 378 MUTE logic:;
#X obj 323 174 r \$0-master-lvl;
#X obj 353 541 s \$0-master-lvl;
#X obj 323 279 s \$0-master-out;
#X obj 29 71 r \$0-master-out;
#X obj 435 408 r \$0-master-out;
#X text 60 10 Level control abstraction \, used in many of the Pd example
patches. The "level" and "mute" controls show up on the parent \, calling
patch.;
#X text 66 517 previous nonzero master-lvl -->;
#X text 138 421 recall previous;
#X text 138 439 value of master-lvl -->;
#X text 39 319 automatically start DSP -->;
#X obj 85 192 hip~ 3;
#X obj 147 192 hip~ 3;
#X obj 478 176 loadbang;
#X msg 480 222 85;
#X obj 564 193 r master_volume;
#X connect 0 0 2 0;
#X connect 1 0 4 0;
#X connect 2 0 25 0;
#X connect 3 0 25 0;
#X connect 4 0 0 0;
#X connect 4 1 5 0;
#X connect 5 0 3 0;
#X connect 6 1 2 1;
#X connect 7 0 13 0;
#X connect 8 0 34 0;
#X connect 10 0 22 0;
#X connect 10 0 11 0;
#X connect 11 0 12 0;
#X connect 13 0 10 0;
#X connect 18 0 9 0;
#X connect 18 0 26 0;
#X connect 19 0 1 0;
#X connect 21 0 35 0;
#X connect 22 0 12 1;
#X connect 24 0 18 0;
#X connect 27 0 7 0;
#X connect 28 0 1 1;
#X connect 28 0 6 0;
#X connect 34 0 11 1;
#X connect 35 0 22 1;
#X connect 36 0 37 0;
#X connect 37 0 18 0;
#X connect 38 0 18 0;
#X coords 0 -1 1 1 65 55 1 300 200;
#X restore 327 499 pd output;
#X text 27 30 This one is for extra instruments;
#X obj 156 332 phasor~;
#X obj 239 416 bob~;
#X obj 265 196 mtof;
#X obj 271 294 pack 0 50;
#X floatatom 267 243 7 0 0 0 - - -, f 7;
#X obj 268 150 r phase_cutoff;
#X obj 283 332 line;
#X obj 182 142 / 25;
#X obj 126 214 line~;
#X obj 269 88 r phase_resonance;
#X floatatom 646 437 4 0 0 0 - - -, f 4;
#X obj 673 528 *~;
#X text 723 500 modulation;
#X text 723 514 depth;
#X floatatom 702 489 4 0 0 0 - - -, f 4;
#X obj 654 576 +~;
#X text 721 562 frequency;
#X text 721 548 carrier;
#X floatatom 733 383 5 0 0 0 - - -, f 5;
#X obj 897 405 r FM_mod_depth;
#X obj 794 347 r FM_Freq;
#X text 663 380 frequency;
#X text 664 365 modulation;
#X msg 810 524 \; table1 sinesum 512 0.5 0.5 0.5 0.5 \; table2 cosinesum
512 0 1;
#N canvas 0 0 450 300 (subpatch) 0;
#X array pitchmod15 131 float 1;
#A 0 -0.423689 -0.345228 -0.313844 -0.298151 0.659075 0.721844 0.784613
0.800305 0.831689 0.831689 0.831689 0.831689 0.847381 0.847381 0.847381
0.847381 0.847381 0.847381 0.831689 0.815997 0.800305 0.784613 0.76892
0.76892 0.753228 0.753228 0.737536 0.721844 0.706151 0.706151 0.674767
0.659075 0.580616 0.533539 0.533539 0.455078 0.428924 0.40277 0.376616
0.345232 0.313848 0.282463 0.266771 0.580616 0.596308 0.612 0.612 0.612
0.612 0.0470752 0.0470752 0.0627675 0.0784599 0.0941522 0.109845 0.125537
0.156922 0.172614 0.188306 0.219691 0.251076 0.266768 0.28246 0.329538
0.360922 0.392307 0.470769 0.486461 0.141229 0.156922 0.172614 0.188306
0.219691 0.251076 0.28246 0.313845 0.34523 0.376615 0.407999 0.439384
0.486461 0.533538 0.580615 0.612 0.659077 0.345232 0.345232 0.345232
0.345232 0.345232 0.345232 0.345232 0.345232 0.345232 0.345232 0.345232
0.360924 0.36877 0.376616 0.376616 0.392309 0.408001 0.408001 0.408001
0.423693 0.431539 0.439385 0.455078 0.47077 0.486462 0.486462 0.517847
0.549231 0.596308 0.627692 0.674769 0.721846 0.690459 0.690459 0.706151
0.721844 0.737536 0.753228 0.753228 0.76892 0.784613 0.800305 0.815997
0.831689 0.847381 0.878766;
#X coords 0 1.02 130 -1.02 258 130 1;
#X restore 760 45 graph;
#X obj 693 435 tabosc4~ pitchmod15;
#X floatatom 527 369 4 0 0 0 - - -, f 4;
#X obj 561 588 osc~ 128;
#X obj 125 261 r Frequency01;
#X obj 287 366 * 2.5, f 8;
#X obj 108 419 / 2, f 8;
#X obj 412 491 /~ 2, f 8;
#X obj 361 432 *~;
#X obj 287 -104 r sine_volume;
#X obj 287 -104 r sine_volume;
#X obj 287 -104 r sine_volume;
#X obj 287 -104 r sine_volume;
#X obj 258 452 /~ 1.1, f 8;
#X obj 557 447 print;
#X obj 547 312 * 1.1;
#X floatatom 425 369 4 0 0 0 - - -, f 4;
#X obj 371 225 r engine02_volume;
#X obj 628 173 r engine02_volume;
#X obj 411 315 / 1, f 8;
#X obj 685 210 / 1, f 8;
#X floatatom 908 197 4 0 20 0 - - -, f 4;
#X obj 904 226 / 10, f 8;
#X floatatom 455 252 4 0 20 0 - - -, f 4;
#X obj 451 281 / 10, f 8;
#X floatatom 815 198 4 0 20 0 - - -, f 4;
#X obj 816 235 / 10, f 8;
#X obj 818 276 * 1.1;
#X connect 1 0 0 0;
#X connect 3 0 2 0;
#X connect 3 0 8 0;
#X connect 3 0 22 0;
#X connect 4 0 43 0;
#X connect 5 0 7 0;
#X connect 6 0 42 0;
#X connect 12 0 13 0;
#X connect 13 0 49 0;
#X connect 14 0 16 0;
#X connect 15 0 18 0;
#X connect 16 0 15 0;
#X connect 17 0 14 0;
#X connect 18 0 41 0;
#X connect 19 0 20 0;
#X connect 20 0 13 2;
#X connect 21 0 19 0;
#X connect 22 0 27 1;
#X connect 23 0 27 0;
#X connect 26 0 23 1;
#X connect 27 0 39 0;
#X connect 30 0 37 0;
#X connect 31 0 26 0;
#X connect 32 0 30 0;
#X connect 37 0 23 0;
#X connect 38 0 4 1;
#X connect 39 0 4 0;
#X connect 40 0 5 0;
#X connect 40 0 9 0;
#X connect 40 0 12 0;
#X connect 41 0 13 1;
#X connect 42 0 7 1;
#X connect 43 0 10 1;
#X connect 44 0 10 0;
#X connect 49 0 44 0;
#X connect 51 0 38 0;
#X connect 52 0 44 1;
#X connect 53 0 55 0;
#X connect 54 0 56 0;
#X connect 55 0 52 0;
#X connect 56 0 51 0;
#X connect 57 0 58 0;
#X connect 58 0 63 1;
#X connect 59 0 60 0;
#X connect 60 0 55 1;
#X connect 61 0 62 0;
#X connect 62 0 63 0;
#X restore 888 362 pd engine_02;
#N canvas 469 249 1098 478 engine_03 0;
#X obj 306 418 dac~;
#N canvas 876 606 701 290 bell1 0;
#N canvas 0 98 350 192 envelopes 0;
#X obj 238 82 / 9;
#X obj 187 82 / 7;
#X obj 71 85 * 0.9;
#X msg 120 58 600;
#X obj 135 83 / 2;
#X obj 12 85 * 1.2;
#X obj 120 33 inlet;
#X obj 12 136 outlet;
#X obj 71 133 outlet;
#X obj 135 132 outlet;
#X obj 187 132 outlet;
#X obj 238 132 outlet;
#X text 98 10 envelope ratios;
#X connect 0 0 11 0;
#X connect 1 0 10 0;
#X connect 2 0 8 0;
#X connect 3 0 0 0;
#X connect 3 0 1 0;
#X connect 3 0 2 0;
#X connect 3 0 4 0;
#X connect 3 0 5 0;
#X connect 4 0 9 0;
#X connect 5 0 7 0;
#X connect 6 0 3 0;
#X restore 251 50 pd envelopes;
#N canvas 543 182 406 316 part_fund+sub 0;
#X obj 156 54 osc~;
#X obj 71 78 osc~;
#X text 6 112 suboctave hum;
#X text 129 105 fundamental;
#X obj 197 258 *~;
#X obj 214 179 line~;
#X msg 216 136 1 \, 0 \$1;
#X obj 259 12 inlet;
#X obj 198 289 outlet~;
#X obj 93 10 r \$0-fundamental1;
#X obj 71 172 *~ 1e-05;
#X obj 70 51 * 0.500001;
#X obj 157 221 *~ 1.01;
#X connect 0 0 12 0;
#X connect 1 0 10 0;
#X connect 4 0 8 0;
#X connect 5 0 4 1;
#X connect 6 0 5 0;
#X connect 7 0 6 0;
#X connect 9 0 0 0;
#X connect 9 0 11 0;
#X connect 10 0 12 0;
#X connect 11 0 1 0;
#X connect 12 0 4 0;
#X restore 21 116 pd part_fund+sub;
#N canvas 1010 324 327 465 part 0;
#X obj 21 163 osc~;
#X obj 154 165 osc~;
#X obj 79 169 osc~;
#X text 147 192 Nominal;
#X text 82 192 "Quint";
#X obj 160 368 *~;
#X obj 226 277 line~;
#X obj 46 269 *~ 0.2;
#X text 8 194 Octave;
#X msg 228 234 1 \, 0 \$1;
#X obj 246 38 inlet;
#X obj 160 396 outlet~;
#X text 79 11 primary overtones;
#X obj 65 38 r \$0-fundamental1;
#X obj 165 135 * 1.5;
#X obj 133 97 * 2;
#X obj 21 140 * 2.0002;
#X obj 88 140 * 5.0001;
#X obj 95 268 *~ 0.1;
#X obj 146 268 *~ 0.1;
#X obj 94 302 *~ 0.05;
#X connect 0 0 7 0;
#X connect 1 0 19 0;
#X connect 2 0 18 0;
#X connect 5 0 11 0;
#X connect 6 0 5 1;
#X connect 7 0 20 0;
#X connect 9 0 6 0;
#X connect 10 0 9 0;
#X connect 13 0 15 0;
#X connect 13 0 16 0;
#X connect 14 0 1 0;
#X connect 15 0 14 0;
#X connect 15 0 17 0;
#X connect 16 0 0 0;
#X connect 17 0 2 0;
#X connect 18 0 20 0;
#X connect 19 0 20 0;
#X connect 20 0 5 0;
#X restore 145 116 pd part primaries;
#N canvas 0 158 289 383 secondaries 0;
#X obj 80 104 osc~;
#X text 19 142 12th overtone;
#X obj 80 79 * 11;
#X obj 151 110 osc~;
#X obj 151 85 * 1.714;
#X text 149 142 12/7;
#X obj 13 105 osc~;
#X obj 13 80 * 1.6666;
#X obj 109 314 *~;
#X obj 173 223 line~;
#X obj 173 255 *~;
#X msg 173 196 1 \, 0 \$1;
#X obj 99 53 * 1.5;
#X obj 172 280 *~;
#X obj 72 254 *~ 0.2;
#X obj 72 210 *~ 0.2;
#X obj 23 210 *~ 0.1;
#X obj 118 209 *~ 0.1;
#X text 203 262 cubic;
#X obj 238 18 inlet;
#X obj 109 347 outlet~;
#X obj 80 19 r \$0-fundamental1;
#X connect 0 0 15 0;
#X connect 2 0 0 0;
#X connect 3 0 17 0;
#X connect 4 0 3 0;
#X connect 6 0 16 0;
#X connect 7 0 6 0;
#X connect 8 0 20 0;
#X connect 9 0 10 1;
#X connect 9 0 10 0;
#X connect 10 0 13 0;
#X connect 10 0 13 1;
#X connect 11 0 9 0;
#X connect 12 0 4 0;
#X connect 12 0 7 0;
#X connect 13 0 8 1;
#X connect 14 0 8 0;
#X connect 15 0 14 0;
#X connect 16 0 14 0;
#X connect 17 0 14 0;
#X connect 19 0 11 0;
#X connect 21 0 2 0;
#X connect 21 0 12 0;
#X restore 275 116 pd secondaries;
#N canvas 1410 439 389 416 circulars 0;
#X obj 145 106 osc~;
#X obj 40 103 osc~;
#X text 109 140 1st circular;
#X text 1 139 60 degree mode;
#X obj 40 80 * 3;
#X obj 145 82 * 6.242;
#X text 25 155 "Tierce";
#X obj 218 105 osc~;
#X obj 218 81 * 12.483;
#X text 220 142 2nd circular;
#X obj 162 325 *~;
#X obj 228 234 line~;
#X obj 227 263 *~;
#X obj 146 237 *~ 0.05;
#X obj 81 189 *~ 0.1;
#X text 262 267 square;
#X msg 228 209 1 \, 0 \$1;
#X obj 313 16 inlet;
#X obj 161 362 outlet~;
#X obj 34 19 r \$0-fundamental1;
#X connect 0 0 13 0;
#X connect 1 0 14 0;
#X connect 4 0 1 0;
#X connect 5 0 0 0;
#X connect 7 0 13 0;
#X connect 8 0 7 0;
#X connect 10 0 18 0;
#X connect 11 0 12 1;
#X connect 11 0 12 0;
#X connect 12 0 10 1;
#X connect 13 0 10 0;
#X connect 14 0 13 0;
#X connect 16 0 11 0;
#X connect 17 0 16 0;
#X connect 19 0 4 0;
#X connect 19 0 5 0;
#X connect 19 0 8 0;
#X restore 384 116 pd circulars;
#N canvas 908 176 357 436 strike 0;
#X obj 67 129 osc~;
#X obj 67 105 * 16;
#X obj 108 129 osc~;
#X obj 108 105 * 24;
#X text 92 72 strikes;
#X obj 144 129 noise~;
#X obj 140 347 *~;
#X obj 205 264 line~;
#X obj 204 288 *~;
#X obj 204 312 *~;
#X text 244 304 cubic;
#X msg 205 242 1 \, 0 \$1;
#X obj 228 25 inlet;
#X obj 140 375 outlet~;
#X obj 77 23 r \$0-fundamental1;
#X obj 107 284 *~ 0.03;
#X connect 0 0 15 0;
#X connect 1 0 0 0;
#X connect 2 0 15 0;
#X connect 3 0 2 0;
#X connect 5 0 15 0;
#X connect 6 0 13 0;
#X connect 7 0 8 1;
#X connect 7 0 8 0;
#X connect 8 0 9 0;
#X connect 8 0 9 1;
#X connect 9 0 6 1;
#X connect 11 0 7 0;
#X connect 12 0 11 0;
#X connect 14 0 1 0;
#X connect 14 0 3 0;
#X connect 15 0 6 0;
#X restore 479 116 pd strike;
#N canvas 83 260 417 324 bodyresonance 0;
#X obj 96 151 delwrite~ \$0-body 400;
#X obj 96 50 clip~ -0.2 0.5;
#X obj 95 30 delread~ \$0-body 59;
#X obj 57 191 outlet~;
#X obj 250 29 inlet~;
#X text 91 6 body resonance;
#X obj 95 87 bp~ 287 12;
#X obj 179 87 bp~ 431 12;
#X obj 11 86 bp~ 1243 12;
#X obj 57 151 *~ 2;
#X obj 96 123 *~ 0.5;
#X connect 1 0 6 0;
#X connect 1 0 7 0;
#X connect 1 0 8 0;
#X connect 2 0 1 0;
#X connect 4 0 0 0;
#X connect 6 0 10 0;
#X connect 7 0 10 0;
#X connect 8 0 10 0;
#X connect 9 0 3 0;
#X connect 10 0 0 0;
#X connect 10 0 9 0;
#X restore 479 152 pd bodyresonance;
#X obj 257 254 outlet~;
#X obj 251 23 inlet;
#X obj 23 29 s \$0-fundamental1;
#X obj 23 6 inlet;
#X obj 256 183 *~ 0.7;
#X obj 257 206 clip~ -0.9 0.7;
#X obj 257 230 hip~ 200;
#X connect 0 0 1 0;
#X connect 0 1 2 0;
#X connect 0 3 4 0;
#X connect 0 4 5 0;
#X connect 1 0 11 0;
#X connect 2 0 11 0;
#X connect 3 0 11 0;
#X connect 4 0 11 0;
#X connect 5 0 6 0;
#X connect 5 0 11 0;
#X connect 6 0 12 0;
#X connect 8 0 0 0;
#X connect 10 0 9 0;
#X connect 11 0 12 0;
#X connect 12 0 13 0;
#X connect 13 0 7 0;
#X restore 155 273 pd bell1;
#X text 639 116 https://web.archive.org/web/20150923112224/http://obiwannabe.co.uk/tutorials/html/tutorial_morephones.html
;
#X obj 207 105 r Frequency03;
#N canvas 663 619 701 290 bell2 0;
#X obj 256 183 *~ 0.9;
#X obj 257 206 clip~ -0.9 0.9;
#N canvas 0 0 350 192 envelopes 0;
#X obj 238 82 / 9;
#X obj 187 82 / 7;
#X obj 71 85 * 0.9;
#X msg 120 58 600;
#X obj 135 83 / 2;
#X obj 12 85 * 1.2;
#X obj 120 33 inlet;
#X obj 12 136 outlet;
#X obj 71 133 outlet;
#X obj 135 132 outlet;
#X obj 187 132 outlet;
#X obj 238 132 outlet;
#X text 98 10 envelope ratios;
#X connect 0 0 11 0;
#X connect 1 0 10 0;
#X connect 2 0 8 0;
#X connect 3 0 0 0;
#X connect 3 0 1 0;
#X connect 3 0 2 0;
#X connect 3 0 4 0;
#X connect 3 0 5 0;
#X connect 4 0 9 0;
#X connect 5 0 7 0;
#X connect 6 0 3 0;
#X restore 251 50 pd envelopes;
#N canvas 0 98 406 316 part_fund+sub 0;
#X obj 156 54 osc~;
#X obj 71 78 osc~;
#X text 6 112 suboctave hum;
#X text 129 105 fundamental;
#X obj 71 52 * 0.5001;
#X obj 197 258 *~;
#X obj 214 179 line~;
#X msg 216 136 1 \, 0 \$1;
#X obj 157 221 *~ 0.02;
#X obj 259 12 inlet;
#X obj 198 289 outlet~;
#X obj 93 10 r \$0-fundamental2;
#X obj 71 172 *~ 0.01;
#X connect 0 0 8 0;
#X connect 1 0 12 0;
#X connect 4 0 1 0;
#X connect 5 0 10 0;
#X connect 6 0 5 1;
#X connect 7 0 6 0;
#X connect 8 0 5 0;
#X connect 9 0 7 0;
#X connect 11 0 4 0;
#X connect 11 0 0 0;
#X connect 12 0 8 0;
#X restore 21 116 pd part_fund+sub;
#N canvas 0 0 327 465 part 0;
#X obj 21 163 osc~;
#X obj 154 165 osc~;
#X obj 79 169 osc~;
#X text 147 192 Nominal;
#X obj 80 140 * 4.8;
#X text 82 192 "Quint";
#X obj 154 140 * 1.5;
#X obj 160 368 *~;
#X obj 226 277 line~;
#X obj 46 269 *~ 0.2;
#X obj 95 268 *~ 0.5;
#X obj 146 268 *~ 0.1;
#X obj 21 140 * 2.002;
#X obj 133 97 * 2;
#X text 8 194 Octave;
#X msg 228 234 1 \, 0 \$1;
#X obj 95 302 *~ 0.04;
#X obj 246 38 inlet;
#X obj 160 396 outlet~;
#X text 79 11 primary overtones;
#X obj 65 38 r \$0-fundamental2;
#X connect 0 0 9 0;
#X connect 1 0 11 0;
#X connect 2 0 10 0;
#X connect 4 0 2 0;
#X connect 6 0 1 0;
#X connect 7 0 18 0;
#X connect 8 0 7 1;
#X connect 9 0 16 0;
#X connect 10 0 16 0;
#X connect 11 0 16 0;
#X connect 12 0 0 0;
#X connect 13 0 4 0;
#X connect 13 0 6 0;
#X connect 15 0 8 0;
#X connect 16 0 7 0;
#X connect 17 0 15 0;
#X connect 20 0 12 0;
#X connect 20 0 13 0;
#X restore 145 116 pd part primaries;
#N canvas 0 0 289 383 secondaries 0;
#X obj 80 104 osc~;
#X text 19 142 12th overtone;
#X obj 80 79 * 11;
#X obj 151 110 osc~;
#X obj 151 85 * 1.714;
#X text 149 142 12/7;
#X obj 13 105 osc~;
#X obj 13 80 * 1.6666;
#X obj 109 314 *~;
#X obj 173 223 line~;
#X obj 173 255 *~;
#X msg 173 196 1 \, 0 \$1;
#X obj 99 53 * 1.5;
#X obj 172 280 *~;
#X obj 72 254 *~ 0.2;
#X obj 72 210 *~ 0.2;
#X obj 23 210 *~ 0.1;
#X obj 118 209 *~ 0.1;
#X text 203 262 cubic;
#X obj 238 18 inlet;
#X obj 109 347 outlet~;
#X obj 80 19 r \$0-fundamental2;
#X connect 0 0 15 0;
#X connect 2 0 0 0;
#X connect 3 0 17 0;
#X connect 4 0 3 0;
#X connect 6 0 16 0;
#X connect 7 0 6 0;
#X connect 8 0 20 0;
#X connect 9 0 10 1;
#X connect 9 0 10 0;
#X connect 10 0 13 0;
#X connect 10 0 13 1;
#X connect 11 0 9 0;
#X connect 12 0 4 0;
#X connect 12 0 7 0;
#X connect 13 0 8 1;
#X connect 14 0 8 0;
#X connect 15 0 14 0;
#X connect 16 0 14 0;
#X connect 17 0 14 0;
#X connect 19 0 11 0;
#X connect 21 0 2 0;
#X connect 21 0 12 0;
#X restore 275 116 pd secondaries;
#N canvas 444 174 389 416 circulars 0;
#X obj 145 106 osc~;
#X obj 40 103 osc~;
#X text 109 140 1st circular;
#X text 1 139 60 degree mode;
#X obj 40 80 * 3;
#X obj 145 82 * 6.242;
#X text 25 155 "Tierce";
#X obj 218 105 osc~;
#X obj 218 81 * 12.483;
#X text 220 142 2nd circular;
#X obj 162 325 *~;
#X obj 228 234 line~;
#X obj 227 263 *~;
#X obj 146 237 *~ 0.05;
#X obj 81 189 *~ 0.1;
#X text 262 267 square;
#X msg 228 209 1 \, 0 \$1;
#X obj 313 16 inlet;
#X obj 161 362 outlet~;
#X obj 34 19 r \$0-fundamental2;
#X connect 0 0 13 0;
#X connect 1 0 14 0;
#X connect 4 0 1 0;
#X connect 5 0 0 0;
#X connect 7 0 13 0;
#X connect 8 0 7 0;
#X connect 10 0 18 0;
#X connect 11 0 12 1;
#X connect 11 0 12 0;
#X connect 12 0 10 1;
#X connect 13 0 10 0;
#X connect 14 0 13 0;
#X connect 16 0 11 0;
#X connect 17 0 16 0;
#X connect 19 0 4 0;
#X connect 19 0 5 0;
#X connect 19 0 8 0;
#X restore 384 116 pd circulars;
#N canvas 0 0 357 436 strike 0;
#X obj 107 284 *~ 0.03;
#X obj 67 129 osc~;
#X obj 67 105 * 16;
#X obj 108 129 osc~;
#X obj 108 105 * 24;
#X text 92 72 strikes;
#X obj 144 129 noise~;
#X obj 140 347 *~;
#X obj 205 264 line~;
#X obj 204 288 *~;
#X obj 204 312 *~;
#X text 244 304 cubic;
#X msg 205 242 1 \, 0 \$1;
#X obj 228 25 inlet;
#X obj 140 375 outlet~;
#X obj 77 23 r \$0-fundamental2;
#X connect 0 0 7 0;
#X connect 1 0 0 0;
#X connect 2 0 1 0;
#X connect 3 0 0 0;
#X connect 4 0 3 0;
#X connect 6 0 0 0;
#X connect 7 0 14 0;
#X connect 8 0 9 1;
#X connect 8 0 9 0;
#X connect 9 0 10 0;
#X connect 9 0 10 1;
#X connect 10 0 7 1;
#X connect 12 0 8 0;
#X connect 13 0 12 0;
#X connect 15 0 2 0;
#X connect 15 0 4 0;
#X restore 479 116 pd strike;
#N canvas 0 0 327 216 bodyresonance 0;
#X obj 96 50 clip~ -0.2 0.5;
#X obj 96 123 *~ 0.4;
#X obj 10 87 bp~ 1243 12;
#X obj 95 87 bp~ 287 12;
#X obj 179 87 bp~ 431 12;
#X obj 57 151 *~ 4;
#X obj 57 191 outlet~;
#X obj 250 29 inlet~;
#X obj 96 151 delwrite~ \$0-body2 400;
#X obj 95 30 delread~ \$0-body2 59;
#X connect 0 0 2 0;
#X connect 0 0 3 0;
#X connect 0 0 4 0;
#X connect 1 0 5 0;
#X connect 1 0 8 0;
#X connect 2 0 1 0;
#X connect 3 0 1 0;
#X connect 4 0 1 0;
#X connect 5 0 6 0;
#X connect 7 0 8 0;
#X connect 9 0 0 0;
#X restore 479 152 pd bodyresonance;
#X obj 258 227 hip~ 10;
#X obj 257 254 outlet~;
#X obj 251 23 inlet;
#X obj 23 6 inlet;
#X obj 23 29 s \$0-fundamental2;
#X connect 0 0 1 0;
#X connect 1 0 9 0;
#X connect 2 0 3 0;
#X connect 2 1 4 0;
#X connect 2 2 5 0;
#X connect 2 3 6 0;
#X connect 2 4 7 0;
#X connect 3 0 0 0;
#X connect 4 0 0 0;
#X connect 5 0 0 0;
#X connect 6 0 0 0;
#X connect 7 0 8 0;
#X connect 7 0 0 0;
#X connect 8 0 1 0;
#X connect 9 0 10 0;
#X connect 11 0 2 0;
#X connect 12 0 13 0;
#X restore 432 276 pd bell2;
#X obj 517 323 hsl 128 15 0 1 0 0 empty bell_volume Volume_0-1 -2 -6
0 8 -262144 -1 -1 0 1;
#X obj 452 399 *~;
#X obj 259 361 *~;
#X obj 412 183 + 0.2;
#X obj 511 357 * 1.8;
#X connect 1 0 7 0;
#X connect 3 0 1 0;
#X connect 3 0 1 1;
#X connect 3 0 8 0;
#X connect 4 0 6 0;
#X connect 5 0 7 1;
#X connect 5 0 9 0;
#X connect 6 0 0 1;
#X connect 7 0 0 0;
#X connect 8 0 4 0;
#X connect 8 0 4 1;
#X connect 9 0 6 1;
#X restore 886 405 pd engine_03;
