#N canvas 1343 131 1168 751 10;
#X msg 108 144 C;
#X msg 109 190 66;
#X msg 174 190 74.25;
#X msg 173 144 D;
#X msg 233 144 E;
#X msg 297 144 F;
#X msg 348 144 G;
#X msg 400 144 A;
#X msg 454 145 B;
#X msg 508 144 C;
#X msg 234 190 82.5;
#X msg 298 190 88;
#X msg 349 190 99;
#X msg 401 190 110;
#X msg 454 190 123.75;
#X msg 512 190 132;
#X msg 139 71 C#;
#X msg 204 71 D#;
#X msg 328 71 F#;
#X msg 379 71 G#;
#X msg 431 71 A#;
#X msg 140 117 68.75;
#X msg 205 117 77.34;
#X msg 329 117 92.81;
#X msg 380 117 103.13;
#X msg 432 117 116.02;
#X obj 314 312 *;
#X floatatom 577 258 5 0 0 0 - - - 0;
#X msg 650 191 0.5;
#X obj 598 47 loadbang;
#X msg 695 191 1;
#X msg 735 191 2;
#X text 695 229 octave;
#X obj 64 98 r key-C;
#X obj 174 92 r key-D;
#X obj 685 42 r key-octave-1;
#X obj 782 93 r key-octave-2;
#X obj 807 139 r key-octave-3;
#X obj 202 29 r key-Ds;
#X obj 119 30 r key-Cs;
#X obj 235 89 r key-E;
#X obj 294 92 r key-F;
#X obj 347 93 r key-G;
#X obj 407 92 r key-A;
#X obj 471 91 r key-B;
#X obj 534 93 r key-C2;
#X obj 467 29 r key-As;
#X obj 397 20 r key-Gs;
#X obj 314 21 r key-Fs;
#X obj 640 101 r key-octave-0;
#X obj 845 169 r key-octave-4;
#X obj 314 500 outlet;
#X obj 314 462 *;
#X floatatom 373 394 5 0 0 0 - - - 0;
#X obj 424 362 / 440;
#X msg 718 375 440;
#X msg 656 388 432;
#X obj 424 323 r tuning;
#X obj 714 430 s tuning;
#X msg 778 191 4;
#X msg 816 221 8;
#X connect 0 0 1 0;
#X connect 1 0 26 0;
#X connect 2 0 26 0;
#X connect 3 0 2 0;
#X connect 4 0 10 0;
#X connect 5 0 11 0;
#X connect 6 0 12 0;
#X connect 7 0 13 0;
#X connect 8 0 14 0;
#X connect 9 0 15 0;
#X connect 10 0 26 0;
#X connect 11 0 26 0;
#X connect 12 0 26 0;
#X connect 13 0 26 0;
#X connect 14 0 26 0;
#X connect 15 0 26 0;
#X connect 16 0 21 0;
#X connect 17 0 22 0;
#X connect 18 0 23 0;
#X connect 19 0 24 0;
#X connect 20 0 25 0;
#X connect 21 0 26 0;
#X connect 22 0 26 0;
#X connect 23 0 26 0;
#X connect 24 0 26 0;
#X connect 25 0 26 0;
#X connect 26 0 52 0;
#X connect 27 0 26 1;
#X connect 28 0 27 0;
#X connect 29 0 28 0;
#X connect 29 0 56 0;
#X connect 30 0 27 0;
#X connect 31 0 27 0;
#X connect 33 0 0 0;
#X connect 34 0 3 0;
#X connect 35 0 30 0;
#X connect 36 0 31 0;
#X connect 37 0 59 0;
#X connect 38 0 17 0;
#X connect 39 0 16 0;
#X connect 40 0 4 0;
#X connect 41 0 5 0;
#X connect 42 0 6 0;
#X connect 43 0 7 0;
#X connect 44 0 8 0;
#X connect 45 0 9 0;
#X connect 46 0 20 0;
#X connect 47 0 19 0;
#X connect 48 0 18 0;
#X connect 49 0 28 0;
#X connect 50 0 60 0;
#X connect 52 0 51 0;
#X connect 53 0 52 1;
#X connect 54 0 53 0;
#X connect 55 0 58 0;
#X connect 56 0 58 0;
#X connect 57 0 54 0;
#X connect 59 0 27 0;
#X connect 60 0 27 0;
#X coords 0 0 1 1 280 750 0;
