#N canvas 263 97 1580 882 10;
#X obj 1414 557 * 1;
#X obj 1388 588 s master_volume;
#X obj 642 78 / 1.27;
#X obj 800 71 * 1;
#X obj 48 115 s Main_Frequency_knob;
#X obj 205 116 s Beat_Frequency_knob;
#X obj 97 93 s yellow-vsl;
#X obj 227 137 s green-vsl;
#X text 1187 20 Midi CC control for a few parameters (made for Akai
MidiMix \, adapt it for your own device);
#X obj 48 43 ctlin 16;
#X obj 207 43 ctlin 20;
#X obj 364 44 ctlin 24;
#X obj 492 44 ctlin 28;
#X obj 631 47 ctlin 46;
#X obj 789 40 ctlin 50;
#X obj 1387 520 ctlin 62;
#X obj 1411 629 s master_volume_knob;
#X obj 1420 668 s master_volume-vst;
#X obj 191 276 * 10;
#X obj 64 281 * 5;
#X obj 330 279 / 1.27;
#X obj 45 317 s FM_Freq_knob;
#X obj 172 316 s FM_mod_depth_knob;
#X obj 947 72 * 1;
#X obj 1060 142 s volume_square;
#X obj 1100 113 s volume_phasor;
#X obj 1091 81 * 1;
#X obj 936 41 ctlin 54;
#X obj 1080 50 ctlin 58;
#X obj 52 245 ctlin 17;
#X obj 180 245 ctlin 21;
#X obj 319 248 ctlin 25;
#X obj 376 80 * 1;
#X obj 357 116 s sine_volume_knob;
#X obj 486 116 s FM_volume_knob;
#X obj 503 75 * 1;
#X obj 630 116 s noise_volume_knob;
#X obj 929 113 s phasor_volume_knob;
#X obj 769 132 s square_volume_knob;
#X obj 53 404 ctlin 18;
#X obj 186 401 ctlin 22;
#X obj 341 396 ctlin 26;
#X obj 471 394 ctlin 30;
#X obj 649 389 ctlin 48;
#X obj 775 386 ctlin 52;
#X obj 650 413 s \$0-r-mod-56;
#X obj 776 410 s \$0-r-sharp-56;
#X obj 920 408 s \$0-r-mod-78;
#X obj 1013 411 s \$0-r-sharp-78;
#X obj 923 380 ctlin 56;
#X obj 1011 384 ctlin 60;
#X obj 1008 276 s \$0-r-dst-mix;
#X obj 915 273 s \$0-r-drv;
#X obj 650 255 ctlin 47;
#X obj 651 279 s \$0-r-pitch-1234;
#X obj 777 276 s \$0-r-pitch-5678;
#X obj 776 252 ctlin 51;
#X obj 70 759 * 1;
#X obj 184 760 * 1;
#X obj 415 749 * 1;
#X obj 288 754 * 1;
#X obj 52 717 ctlin 19;
#X obj 160 718 ctlin 23;
#X obj 276 718 ctlin 27;
#X obj 404 718 ctlin 31;
#X obj 526 712 ctlin 49;
#X obj 642 711 ctlin 53;
#X obj 898 714 ctlin 61;
#X obj 493 251 ctlin 29;
#X obj 918 245 ctlin 55;
#X obj 1006 249 ctlin 59;
#X obj 45 621 push_switch 3;
#X obj 179 624 push_switch 6;
#X obj 443 624 push_switch 12;
#X obj 561 626 push_switch 15;
#X obj 686 621 push_switch 18;
#X obj 805 623 push_switch 21;
#X obj 934 630 push_switch 24;
#X obj 175 559 toggle_switch 4;
#X obj 443 559 toggle_switch 10;
#X obj 43 559 toggle_switch 1;
#X obj 309 558 toggle_switch 7;
#X obj 698 558 toggle_switch 16;
#X obj 566 557 toggle_switch 13;
#X obj 814 555 toggle_switch 19;
#X obj 941 557 toggle_switch 22;
#X obj 317 623 push_switch 9;
#X obj 770 707 ctlin 57;
#X obj 909 745 / 12.7;
#X obj 318 317 s square_pwm_knob;
#X obj 979 793 s vibrato_right_amount_knob;
#X obj 48 663 s key-C;
#X obj 66 85 * 4;
#X obj 231 85 * 0.2;
#X obj 30 797 s sine_volume_knob;
#X obj 158 791 s sine_subbass_volume_knob;
#X obj 267 818 s FM_volume_knob;
#X obj 26 488 s vibrato_left_freq_knob;
#X obj 64 438 / 6;
#X obj 188 466 s vibrato_left_amount_knob;
#X obj 211 434 / 12.7;
#X obj 330 492 s vibrato_right_freq_knob;
#X obj 396 429 / 6;
#X obj 487 428 / 12.7;
#X obj 462 463 s vibrato_right_amount_knob;
#X obj 509 778 s noise_volume_knob;
#X obj 395 811 s noise_brown_volume_knob;
#X obj 544 744 * 1;
#X obj 651 822 s square_volume_knob;
#X obj 782 789 s phasor_volume_knob;
#X obj 657 748 * 1;
#X obj 798 741 * 1;
#X connect 0 0 1 0;
#X connect 0 0 16 0;
#X connect 0 0 17 0;
#X connect 2 0 36 0;
#X connect 3 0 38 0;
#X connect 9 0 92 0;
#X connect 10 0 93 0;
#X connect 11 0 32 0;
#X connect 12 0 35 0;
#X connect 13 0 2 0;
#X connect 14 0 3 0;
#X connect 15 0 0 0;
#X connect 18 0 22 0;
#X connect 19 0 21 0;
#X connect 20 0 89 0;
#X connect 23 0 37 0;
#X connect 26 0 25 0;
#X connect 26 0 24 0;
#X connect 27 0 23 0;
#X connect 28 0 26 0;
#X connect 29 0 19 0;
#X connect 30 0 18 0;
#X connect 31 0 20 0;
#X connect 32 0 33 0;
#X connect 35 0 34 0;
#X connect 39 0 98 0;
#X connect 40 0 100 0;
#X connect 41 0 102 0;
#X connect 42 0 103 0;
#X connect 43 0 45 0;
#X connect 44 0 46 0;
#X connect 49 0 47 0;
#X connect 50 0 48 0;
#X connect 53 0 54 0;
#X connect 56 0 55 0;
#X connect 57 0 94 0;
#X connect 58 0 95 0;
#X connect 59 0 106 0;
#X connect 60 0 96 0;
#X connect 61 0 57 0;
#X connect 62 0 58 0;
#X connect 63 0 60 0;
#X connect 64 0 59 0;
#X connect 65 0 107 0;
#X connect 66 0 110 0;
#X connect 67 0 88 0;
#X connect 69 0 52 0;
#X connect 70 0 51 0;
#X connect 71 0 91 0;
#X connect 87 0 111 0;
#X connect 88 0 90 0;
#X connect 92 0 4 0;
#X connect 92 0 6 0;
#X connect 93 0 5 0;
#X connect 93 0 7 0;
#X connect 98 0 97 0;
#X connect 100 0 99 0;
#X connect 102 0 101 0;
#X connect 103 0 104 0;
#X connect 107 0 105 0;
#X connect 110 0 108 0;
#X connect 111 0 109 0;
