#N canvas 1229 106 691 863 12;
#X obj 56 15 binauralsynth;
#N canvas 39 158 648 495 sequence 0;
#X floatatom 283 73 8 0 0 0 - - -, f 8;
#X obj 36 329 s Main_Frequency;
#X obj 228 327 s Beat_Frequency;
#X msg 38 209 300;
#X msg 75 209 8;
#X msg 279 241 6;
#X msg 215 238 250;
#X obj 128 154 bang;
#X msg 227 30 stop;
#X obj 138 60 bang;
#X msg 137 31 start;
#X obj 78 122 delay;
#X obj 202 187 delay;
#X obj 269 145 / 2;
#X obj 328 166 / 2;
#X text 388 229 You can define here your own sequence of frequencies
and beats, f 29;
#X obj 180 90 metro;
#X obj 537 17 loadbang;
#X msg 542 77 5000;
#X text 586 76 ms;
#X msg 433 24 5;
#X obj 488 148 * 1000;
#X text 485 65 s;
#X floatatom 442 66 5 0 0 0 - - -, f 5;
#X connect 0 0 13 0;
#X connect 0 0 14 0;
#X connect 0 0 16 1;
#X connect 3 0 1 0;
#X connect 4 0 2 0;
#X connect 5 0 2 0;
#X connect 6 0 1 0;
#X connect 7 0 12 0;
#X connect 8 0 16 0;
#X connect 9 0 16 0;
#X connect 9 0 3 0;
#X connect 9 0 4 0;
#X connect 10 0 9 0;
#X connect 11 0 4 0;
#X connect 11 0 3 0;
#X connect 11 0 7 0;
#X connect 12 0 5 0;
#X connect 12 0 6 0;
#X connect 13 0 11 1;
#X connect 14 0 12 1;
#X connect 16 0 11 0;
#X connect 17 0 18 0;
#X connect 17 0 20 0;
#X connect 18 0 0 0;
#X connect 20 0 23 0;
#X connect 21 0 0 0;
#X connect 23 0 21 0;
#X restore 256 769 pd sequence;
