#N canvas 728 146 653 575 10;
#X obj 309 61 osc~;
#X obj 308 93 +~ 1;
#X obj 309 119 *~;
#X obj 318 169 unsig~ 5;
#X floatatom 323 207 10 0 0 0 - - - 0;
#X obj 172 279 delwrite~ buffer 2000;
#X obj 174 330 vd~ buffer;
#X obj 173 416 outlet~;
#X obj 173 204 inlet~;
#X obj 113 135 hsl 128 15 0.1 20 0 0 empty empty freq -2 -8 0 10 #fcfcfc
#000000 #000000 0 1;
#X obj 112 171 hsl 128 15 0 10 0 0 empty empty amount -2 -8 0 10 #fcfcfc
#000000 #000000 0 1;
#X obj 303 20 inlet;
#X obj 396 26 inlet;
#X text 262 531 based on http://www.pdpatchrepo.info/hurleur/vibrato.pd
;
#X connect 0 0 1 0;
#X connect 1 0 2 0;
#X connect 2 0 3 0;
#X connect 2 0 6 0;
#X connect 3 0 4 0;
#X connect 6 0 7 0;
#X connect 8 0 5 0;
#X connect 9 0 0 0;
#X connect 10 0 2 1;
#X connect 11 0 0 0;
#X connect 12 0 2 1;
#X coords 0 -1 1 1 150 90 1 100 100;
